<?xml version="1.0" encoding="UTF-8"?>
<svg id="Layer_1" data-name="Layer 1" xmlns="http://www.w3.org/2000/svg" viewBox="0 0 200 200">
  <defs>
    <style>
      .cls-1 {
        fill: none;
        stroke: #2689ff;
        stroke-miterlimit: 10;
        stroke-width: 3px;
      }
    </style>
  </defs>
  <path class="cls-1" d="m181.94,32.06c-17.18-17.19-44.14-18.62-62.96-4.29-1.71,1.3-3.36,2.73-4.93,4.29l-14.06,14.07-14.06-14.07c-6.04-6.04-13.28-10.12-20.95-12.27-16.16-4.53-34.22-.45-46.93,12.27C-.69,50.82-.69,81.24,18.06,100l35.83,35.85,46.11,46.15,44.39-44.43,37.55-37.58c18.75-18.76,18.75-49.17,0-67.93Z"/>
  <path class="cls-1" d="m126.6,77.95c-5.58-5.58-14.33-6.04-20.44-1.39-.56.42-1.09.88-1.6,1.39l-4.56,4.57-4.56-4.57c-1.96-1.96-4.31-3.29-6.8-3.98-5.24-1.47-11.11-.14-15.23,3.98-6.08,6.09-6.08,15.96,0,22.05l11.63,11.64,14.97,14.98,14.41-14.42,12.19-12.2c6.08-6.09,6.08-15.96,0-22.05Z"/>
  <line class="cls-1" x1="100" y1="126.62" x2="100" y2="182"/>
  <line class="cls-1" x1="100" y1="82.52" x2="100" y2="46.13"/>
</svg>