<svg id="Layer_1" data-name="Layer 1" xmlns="http://www.w3.org/2000/svg" viewBox="0 0 250 53.3"><defs><style>.cls-1{fill:#fff;}</style></defs><title>gordian-knot</title><path class="cls-1" d="M746,526.65a13.61,13.61,0,0,1-12.51-8.24l2.67-1.15a10.7,10.7,0,0,0,19.68,0l2.66,1.15A13.61,13.61,0,0,1,746,526.65Z" transform="translate(-675 -473.35)"/><path class="cls-1" d="M741.26,521.15a13.24,13.24,0,1,1,9.33-22.6l4.76,4.76a5.65,5.65,0,1,1-8,8l2-2.05a2.82,2.82,0,0,0,3.89,0,2.76,2.76,0,0,0,0-3.89l-4.76-4.76a10.34,10.34,0,1,0-3.11,16.77l1.18,2.65A13.18,13.18,0,0,1,741.26,521.15Z" transform="translate(-675 -473.35)"/><path class="cls-1" d="M750.81,521.16a13.16,13.16,0,0,1-9.36-3.88l-4.76-4.76a5.65,5.65,0,0,1,8-8l-2,2.05a2.81,2.81,0,0,0-3.88,0,2.74,2.74,0,0,0,0,3.89l4.76,4.76a10.34,10.34,0,1,0,3.11-16.77l-1.18-2.65a13.33,13.33,0,0,1,14.75,2.74,13.25,13.25,0,0,1-9.37,22.61Z" transform="translate(-675 -473.35)"/><rect class="cls-1" x="744.57" y="504.58" width="2.9" height="6.68" transform="translate(-815.34 204.55) rotate(-45.11)"/><rect class="cls-1" x="744.57" y="504.58" width="2.9" height="6.68" transform="translate(-815.34 204.55) rotate(-45.11)"/><path class="cls-1" d="M755.86,498.57a10.71,10.71,0,0,0-19.68,0l-2.67-1.15a13.61,13.61,0,0,1,25,0Z" transform="translate(-675 -473.35)"/><path class="cls-1" d="M789.27,494.53c-.42-.07-1.7-.07-1.91-.07a11.26,11.26,0,0,0-10.13,7.16v22h-4V491.34h4v4.25a12.42,12.42,0,0,1,10.2-4.95c.57,0,2,.07,2.41.14Z" transform="translate(-675 -473.35)"/><path class="cls-1" d="M801,521.31a16.61,16.61,0,0,1-6.87-13.82,17.25,17.25,0,0,1,6-13.24,16.42,16.42,0,0,1,10.27-3.61,15.86,15.86,0,0,1,11.69,5V473.35h4v50.3h-3.9V518.9a14.21,14.21,0,0,1-11.61,5.45A16.46,16.46,0,0,1,801,521.31ZM822.07,501a14.22,14.22,0,0,0-11.62-6.52,12.49,12.49,0,0,0-7.79,2.76,13.23,13.23,0,0,0-4.53,10.27,12.49,12.49,0,0,0,12.4,13,13.4,13.4,0,0,0,11.54-7.09Z" transform="translate(-675 -473.35)"/><path class="cls-1" d="M840.14,476.54a3.63,3.63,0,0,1,3.61,3.61,3.56,3.56,0,0,1-3.61,3.54,3.5,3.5,0,0,1-3.55-3.54A3.57,3.57,0,0,1,840.14,476.54Zm-2,14.8h4v32.31h-4Z" transform="translate(-675 -473.35)"/><path class="cls-1" d="M879.52,523.65V518.9a14.23,14.23,0,0,1-11.62,5.45,16.38,16.38,0,0,1-16.5-16.86,17.25,17.25,0,0,1,6-13.24,16.42,16.42,0,0,1,10.27-3.61,15.7,15.7,0,0,1,11.83,5.17v-4.47h3.9v32.31ZM879.38,501a14.22,14.22,0,0,0-11.62-6.52,12.49,12.49,0,0,0-7.79,2.76,13.23,13.23,0,0,0-4.53,10.27,12.49,12.49,0,0,0,12.39,13,13.41,13.41,0,0,0,11.55-7.09Z" transform="translate(-675 -473.35)"/><path class="cls-1" d="M899.36,495.88a14.92,14.92,0,0,1,22.88.21c1.77,2.34,2.76,5,2.76,10.34v17.22h-4V506.72c0-4.25-.71-6.31-1.84-7.94a10,10,0,0,0-8.43-4.32,12.8,12.8,0,0,0-11.19,6.73v22.46h-4V491.34h3.9Z" transform="translate(-675 -473.35)"/><path class="cls-1" d="M715.38,498.29h-16.3v-4h20.55v20.89a24.68,24.68,0,0,1-19.13,9.21c-14.8,0-25.5-10.83-25.5-25.5,0-14.31,10.55-25.5,24.86-25.5a24.38,24.38,0,0,1,18,7.58L715,483.84a20.41,20.41,0,0,0-15.09-6.45c-11.9,0-20.61,9.56-20.61,21.46s8.71,21.47,21,21.47a21,21,0,0,0,15.09-6.24Z" transform="translate(-675 -473.35)"/></svg>