<svg id="Layer_1" data-name="Layer 1" xmlns="http://www.w3.org/2000/svg" viewBox="0 0 351.71 225.82"><defs><style>.cls-1{fill:#fff;}.cls-2{fill:none;stroke:#75e9b3;stroke-miterlimit:10;stroke-width:6px;}</style></defs><title>gordian-topo</title><path class="cls-1" d="M781.55,499.55a11.59,11.59,0,0,1-9.82-5H764v12.9a23,23,0,0,0,15.27,5.42,18.65,18.65,0,0,0,10-2.46V497A11.88,11.88,0,0,1,781.55,499.55Z" transform="translate(-594.64 -366.89)"/><path class="cls-1" d="M682,487.47c0-6.94,5.23-12,11.4-12a11,11,0,0,1,5.48,1.51V462.71a29.81,29.81,0,0,0-5.48-.52c-17.31,0-25.62,13.63-25.62,25.28v0H682Z" transform="translate(-594.64 -366.89)"/><path class="cls-1" d="M865.79,499.64a11.26,11.26,0,0,1-10.95-7.7h0v19.41a24.63,24.63,0,0,0,8.81,1.57,21,21,0,0,0,4.93-.6v-13A13.56,13.56,0,0,1,865.79,499.64Z" transform="translate(-594.64 -366.89)"/><path class="cls-2" d="M773.56,397.05c-14.48,9.87-27.35,29.76-23.91,49.59,1.9,10.91,12.67,20.61,18.37,29.71,7.9,12.6,13,26.22,11.18,41.89-1.45,12.21-12.71,24.3-22.56,29.76-21.19,11.75-51.54-4.87-61.28-28-4.09-9.73-5.49-20.63-5.74-31.38a81.55,81.55,0,0,1,1-16c3.12-17.5,15.69-30,29.34-37.71,17.34-9.8,31.65-8.54,43.76,10.41,11,17.23,2.25,28.46-5.89,43.49a82,82,0,0,0-9.58,40.65c.63,22.08,20.36,41.15,36.63,50.17,17,9.42,36.63,11.9,55.35,8.84,23.41-3.81,35.2-33.15,14.65-51.56-10.68-9.56-24.85-14.34-20.31-34.41,1.39-6.12,6-10.54,10.32-14.57,9.63-8.95,21.75-23.52,18.76-38.73-3.19-16.26-18-28.21-29.58-36.78-24.36-18.11-56.85-38.33-85.28-19.78-13.82,9-23.75,24.55-28.75,41.58-6.78,23.08-7,55.5-3.25,79.38,2.85,18.17,9,36,19.61,50.09S762.24,588,778.65,589.3c34,2.78,60-28.18,74.89-59.63,8.32-17.49,11.29-39.37,3.35-57.07-5.26-11.72-19.54-24.4-19.86-38.17-.38-16.6,15.41-28.65,11.29-47.1A22.69,22.69,0,0,0,836.86,372c-6-3-13-2.56-19.24-.35-7.9,2.8-13,8.47-19.82,12.93C790.16,389.6,781.24,391.81,773.56,397.05Z" transform="translate(-594.64 -366.89)"/><path class="cls-1" d="M662.07,475.22c.09,1.11.09,2,.09,3.34,0,21.25-16.28,34-33.85,34a33.16,33.16,0,0,1-33.67-33.25c0-18.94,15.25-32.65,33.93-32.65,15.17,0,28.19,10.2,31.7,22.45H642.11a15.56,15.56,0,0,0-14-8.22c-8,0-17.31,5.91-17.31,18.42,0,13.28,9.43,19,17.4,19s13.45-4,15.16-10.19H624.46V475.22Z" transform="translate(-594.64 -366.89)"/><path class="cls-1" d="M727,463.74h13.37v5.05h.17c1.2-2.31,3.68-6.68,11.91-6.68v14.31c-6.6.17-11.22,1.54-11.22,8.74v26.13H727Z" transform="translate(-594.64 -366.89)"/><path class="cls-1" d="M831.68,458.68H817.46v-10.8h14.22Zm0,52.61H817.46V463.74h14.22Z" transform="translate(-594.64 -366.89)"/><path class="cls-1" d="M902.3,463.74h13.28v5.05h.17c1.46-2.31,4.46-6.68,12.94-6.68,4.54,0,9.6,1.88,12.17,4.11s5.48,6,5.48,15.34v29.73H932.12v-26c0-3.34,0-9.86-7.46-9.86-8.14,0-8.14,7-8.14,9.95v25.87H902.3Z" transform="translate(-594.64 -366.89)"/><path class="cls-1" d="M877.7,463.74v5.05h-.17c-1.72-2.91-6.09-6.68-13.88-6.68-12.68,0-23.91,9.77-23.91,25.36,0,10.7,5.46,20.26,15.1,23.88V491.94h0a12.44,12.44,0,0,1-.88-4.3c0-5.39,3.6-12.25,11.74-12.25s12,6.34,12,12.08c0,4.1-2.38,10.47-9.12,11.87v13c3.82-.91,7.26-2.91,8.95-6.17h.17v5.14h14.22V463.74Z" transform="translate(-594.64 -366.89)"/><path class="cls-1" d="M698.84,462.71V477a12.26,12.26,0,0,1,0,21,11,11,0,0,1-5.48,1.51c-6.16,0-11.38-5-11.4-12H667.74c0,11.65,8.33,25.24,25.62,25.24a29.81,29.81,0,0,0,5.48-.52c13.57-2.54,20.14-14.42,20.14-24.76S712.41,465.26,698.84,462.71Z" transform="translate(-594.64 -366.89)"/><path class="cls-1" d="M792.94,447.88v19.88c-1.54-1.54-5.57-5.65-14-5.65-12.08,0-23.57,9.17-23.57,25.28,0,8.24,3.14,15.41,8.55,20v-12.9h7.77a12.73,12.73,0,0,1-2.09-7.22,12,12,0,0,1,24.08,0,12.83,12.83,0,0,1-4.49,9.74v13.34a12.68,12.68,0,0,0,4.23-4.23h.17v5.14h13.54V447.88Z" transform="translate(-594.64 -366.89)"/></svg>