<?xml version="1.0" encoding="utf-8"?>
<!-- Generator: Adobe Illustrator 23.0.6, SVG Export Plug-In . SVG Version: 6.00 Build 0)  -->
<svg version="1.1" id="Layer_1" xmlns="http://www.w3.org/2000/svg" xmlns:xlink="http://www.w3.org/1999/xlink" x="0px" y="0px"
	 width="150px" height="35px" viewBox="0 0 150 35" enable-background="new 0 0 150 35" xml:space="preserve">
<g>
	<g>
		<path fill="#222222" d="M31.4,0l-9.2,10.9l-10.9,4.2L0,32.3h54.4L31.4,0z M31.8,4.6l18.1,25.3H15.6l3.1-4.7l8.4-3.2L31.8,4.6z
			 M12.8,17l10.8-4.2l5.2-6.2l-3.6,13.5l-8,3.1l-4.3,6.7H4.4L12.8,17z"/>
		<path fill="#222222" d="M62,3.4c0.7,0,1.3,0.1,1.9,0.3c0.6,0.2,1.1,0.6,1.6,1c0.4,0.4,0.8,1,1,1.7s0.4,1.4,0.4,2.3
			c0,0.8-0.1,1.5-0.3,2.2c-0.2,0.7-0.5,1.2-0.9,1.7s-0.9,0.9-1.5,1.1c-0.6,0.3-1.3,0.4-2.2,0.4h-4.6V3.4H62z M61.8,12.1
			c0.3,0,0.7-0.1,1-0.2c0.3-0.1,0.6-0.3,0.9-0.6c0.3-0.3,0.5-0.6,0.6-1c0.2-0.4,0.2-0.9,0.2-1.5c0-0.5-0.1-1-0.2-1.5
			c-0.1-0.3-0.3-0.7-0.5-1c-0.2-0.3-0.6-0.6-1-0.7c-0.4-0.2-0.9-0.2-1.5-0.2h-1.7v6.8h2.2V12.1z"/>
		<path fill="#222222" d="M71.2,16.5c-0.4,0.3-1,0.4-1.7,0.4c-0.2,0-0.4,0-0.7,0c-0.2,0-0.4,0-0.7-0.1V15c0.2,0,0.4,0,0.6,0.1
			c0.2,0,0.4,0,0.6,0c0.3,0,0.5-0.1,0.6-0.3s0.2-0.4,0.2-0.6c0-0.2,0-0.3-0.1-0.5l-2.7-7.3h2.3l1.8,5.3l0,0l1.7-5.3h2.2L72,15.2
			C71.9,15.7,71.6,16.2,71.2,16.5z"/>
		<path fill="#222222" d="M78.1,6.3v1.1l0,0c0.3-0.5,0.6-0.8,1.1-1c0.4-0.2,0.9-0.3,1.3-0.3c0.6,0,1,0.1,1.4,0.2
			c0.4,0.2,0.7,0.4,0.9,0.6c0.2,0.3,0.4,0.6,0.4,1c0.1,0.4,0.1,0.8,0.1,1.3V14h-2.1V9.7c0-0.6-0.1-1.1-0.3-1.4
			c-0.2-0.3-0.6-0.5-1.1-0.5c-0.6,0-1,0.2-1.3,0.5s-0.4,0.9-0.4,1.7v4.1H76V6.3H78.1z"/>
		<path fill="#222222" d="M85.1,8.5c0.2-0.5,0.5-0.9,0.8-1.3c0.4-0.4,0.8-0.6,1.3-0.8s1-0.3,1.7-0.3c0.6,0,1.2,0.1,1.7,0.3
			c0.5,0.2,0.9,0.5,1.3,0.8c0.4,0.4,0.6,0.8,0.8,1.3C92.9,9,93,9.6,93,10.2c0,0.6-0.1,1.2-0.3,1.7c-0.2,0.5-0.5,0.9-0.8,1.3
			c-0.4,0.4-0.8,0.6-1.3,0.8s-1.1,0.3-1.7,0.3s-1.2-0.1-1.7-0.3s-0.9-0.5-1.3-0.8c-0.4-0.4-0.6-0.8-0.8-1.3
			c-0.2-0.5-0.3-1.1-0.3-1.7C84.8,9.6,84.9,9,85.1,8.5z M87,11.2c0.1,0.3,0.2,0.6,0.3,0.8c0.1,0.2,0.3,0.4,0.6,0.6
			c0.2,0.1,0.5,0.2,0.9,0.2s0.7-0.1,0.9-0.2c0.2-0.1,0.4-0.3,0.6-0.6c0.1-0.2,0.2-0.5,0.3-0.8c0.1-0.3,0.1-0.6,0.1-0.9
			c0-0.3,0-0.6-0.1-0.9c-0.1-0.3-0.2-0.6-0.3-0.8C90.2,8.3,90,8.1,89.8,8c-0.2-0.1-0.6-0.2-0.9-0.2s-0.7,0-1,0.2
			c-0.2,0.1-0.4,0.3-0.6,0.6C87.2,8.7,87.1,9,87,9.3c0,0.3,0,0.6,0,0.9C87,10.6,87,10.9,87,11.2z"/>
		<path fill="#222222" d="M56.5,23.5v-2h8.8v2h-3.2v8.8h-2.4v-8.8H56.5z"/>
		<path fill="#222222" d="M68.5,21.5v4.1l0,0c0.3-0.5,0.6-0.8,1-1s0.8-0.3,1.2-0.3c0.6,0,1,0.1,1.4,0.2c0.4,0.2,0.7,0.4,0.9,0.6
			c0.2,0.3,0.4,0.6,0.4,1c0.1,0.4,0.1,0.8,0.1,1.3v4.8h-2.1v-4.4c0-0.6-0.1-1.1-0.3-1.4c-0.2-0.3-0.6-0.5-1.1-0.5
			c-0.6,0-1,0.2-1.3,0.5s-0.4,0.9-0.4,1.7v4.1h-2.1V21.5H68.5z"/>
		<path fill="#222222" d="M77.6,30.4c0.3,0.3,0.8,0.5,1.4,0.5c0.4,0,0.8-0.1,1.1-0.3c0.3-0.2,0.5-0.4,0.6-0.7h1.9
			c-0.3,0.9-0.8,1.6-1.4,2s-1.4,0.6-2.3,0.6c-0.6,0-1.2-0.1-1.7-0.3s-0.9-0.5-1.3-0.8c-0.3-0.4-0.6-0.8-0.8-1.3
			c-0.2-0.5-0.3-1.1-0.3-1.7s0.1-1.1,0.3-1.6c0.2-0.5,0.5-0.9,0.8-1.3c0.4-0.4,0.8-0.7,1.3-0.9c0.5-0.2,1-0.3,1.6-0.3
			c0.7,0,1.2,0.1,1.7,0.4s0.9,0.6,1.2,1c0.3,0.4,0.5,0.9,0.7,1.5c0.1,0.6,0.2,1.1,0.2,1.7H77C77.1,29.6,77.2,30.1,77.6,30.4z
			 M80,26.3c-0.3-0.3-0.6-0.4-1.2-0.4c-0.3,0-0.6,0.1-0.9,0.2c-0.2,0.1-0.4,0.3-0.5,0.4c-0.1,0.2-0.2,0.4-0.3,0.5
			C77,27.2,77,27.4,77,27.5h3.5C80.4,27,80.2,26.6,80,26.3z"/>
		<path fill="#222222" d="M86,24.5V26l0,0c0.1-0.2,0.2-0.5,0.4-0.7c0.2-0.2,0.4-0.4,0.6-0.5s0.5-0.3,0.7-0.3
			c0.3-0.1,0.5-0.1,0.8-0.1c0.1,0,0.3,0,0.5,0.1v2c-0.1,0-0.2,0-0.4-0.1c-0.1,0-0.3,0-0.4,0c-0.4,0-0.7,0.1-1,0.2s-0.5,0.3-0.7,0.5
			s-0.3,0.5-0.4,0.8s-0.1,0.6-0.1,1v3.5h-2.1v-7.8H86V24.5z"/>
		<path fill="#222222" d="M89.7,26.9c0-0.5,0.2-0.9,0.4-1.3c0.2-0.3,0.5-0.6,0.8-0.8c0.3-0.2,0.7-0.3,1.2-0.4
			c0.4-0.1,0.9-0.1,1.3-0.1s0.8,0,1.2,0.1c0.4,0.1,0.8,0.2,1.1,0.3c0.3,0.2,0.6,0.4,0.8,0.7c0.2,0.3,0.3,0.7,0.3,1.1v4.1
			c0,0.4,0,0.7,0.1,1c0,0.3,0.1,0.6,0.2,0.7h-2.2c0-0.1-0.1-0.2-0.1-0.4c0-0.1,0-0.3-0.1-0.4c-0.3,0.4-0.7,0.6-1.2,0.7
			c-0.5,0.1-0.9,0.2-1.4,0.2c-0.4,0-0.7,0-1-0.1s-0.6-0.2-0.8-0.4c-0.2-0.2-0.4-0.4-0.6-0.7c-0.1-0.3-0.2-0.6-0.2-1s0.1-0.8,0.2-1.1
			c0.2-0.3,0.4-0.5,0.6-0.7s0.5-0.3,0.8-0.4s0.6-0.2,1-0.2c0.3-0.1,0.6-0.1,1-0.1c0.3,0,0.6-0.1,0.8-0.1c0.2-0.1,0.4-0.1,0.6-0.3
			c0.1-0.1,0.2-0.3,0.2-0.5s0-0.4-0.1-0.6c-0.1-0.1-0.2-0.2-0.3-0.3c-0.1-0.1-0.3-0.1-0.4-0.2c-0.2,0-0.3,0-0.5,0
			c-0.4,0-0.8,0.1-1,0.3c-0.2,0.2-0.4,0.5-0.4,0.9C92,26.9,89.7,26.9,89.7,26.9z M94.6,28.4c-0.1,0.1-0.2,0.1-0.3,0.2
			c-0.1,0-0.3,0.1-0.4,0.1c-0.2,0-0.3,0.1-0.5,0.1s-0.3,0-0.5,0.1c-0.2,0-0.3,0.1-0.5,0.1c-0.2,0.1-0.3,0.1-0.4,0.2
			s-0.2,0.2-0.3,0.3c-0.1,0.1-0.1,0.3-0.1,0.5s0,0.4,0.1,0.5s0.2,0.2,0.3,0.3c0.1,0.1,0.3,0.1,0.4,0.2c0.2,0,0.3,0,0.5,0
			c0.4,0,0.7-0.1,1-0.2c0.2-0.1,0.4-0.3,0.5-0.5s0.2-0.4,0.2-0.6s0-0.4,0-0.5C94.6,29.2,94.6,28.4,94.6,28.4z"/>
		<path fill="#222222" d="M100.5,24.5v1l0,0c0.3-0.4,0.6-0.7,1-0.9c0.4-0.2,0.8-0.3,1.3-0.3c0.6,0,1.1,0.1,1.6,0.3
			c0.4,0.2,0.8,0.5,1.1,0.9c0.3,0.4,0.5,0.8,0.6,1.3s0.2,1,0.2,1.6c0,0.5-0.1,1-0.2,1.5s-0.4,0.9-0.6,1.3c-0.3,0.4-0.6,0.7-1.1,0.9
			c-0.4,0.2-0.9,0.3-1.5,0.3c-0.5,0-0.9-0.1-1.3-0.3s-0.7-0.5-1-0.9l0,0V35h-2.1V24.5H100.5z M103.3,30.6c0.2-0.1,0.4-0.3,0.6-0.6
			c0.1-0.2,0.2-0.5,0.3-0.8c0.1-0.3,0.1-0.6,0.1-0.9s0-0.6-0.1-0.9s-0.2-0.6-0.3-0.8c-0.2-0.2-0.3-0.4-0.6-0.6
			c-0.2-0.1-0.5-0.2-0.9-0.2s-0.6,0.1-0.9,0.2c-0.2,0.1-0.4,0.3-0.6,0.6c-0.1,0.2-0.2,0.5-0.3,0.8c-0.1,0.3-0.1,0.6-0.1,0.9
			s0,0.6,0.1,0.9s0.2,0.6,0.3,0.8c0.1,0.2,0.3,0.4,0.6,0.6c0.2,0.1,0.5,0.2,0.9,0.2C102.7,30.9,103,30.8,103.3,30.6z"/>
		<path fill="#222222" d="M110,30.4c0.3,0.3,0.8,0.5,1.4,0.5c0.4,0,0.8-0.1,1.1-0.3c0.3-0.2,0.5-0.4,0.6-0.7h1.9
			c-0.3,0.9-0.8,1.6-1.4,2s-1.4,0.6-2.3,0.6c-0.6,0-1.2-0.1-1.7-0.3s-0.9-0.5-1.3-0.8c-0.3-0.4-0.6-0.8-0.8-1.3
			c-0.2-0.5-0.3-1.1-0.3-1.7s0.1-1.1,0.3-1.6c0.2-0.5,0.5-0.9,0.8-1.3c0.4-0.4,0.8-0.7,1.3-0.9c0.5-0.2,1-0.3,1.6-0.3
			c0.7,0,1.2,0.1,1.7,0.4s0.9,0.6,1.2,1c0.3,0.4,0.5,0.9,0.7,1.5c0.1,0.6,0.2,1.1,0.2,1.7h-5.6C109.5,29.6,109.6,30.1,110,30.4z
			 M112.4,26.3c-0.3-0.3-0.6-0.4-1.2-0.4c-0.3,0-0.6,0.1-0.9,0.2c-0.2,0.1-0.4,0.3-0.5,0.4c-0.1,0.2-0.2,0.4-0.3,0.5
			c-0.1,0.2-0.1,0.4-0.1,0.5h3.5C112.8,27,112.6,26.6,112.4,26.3z"/>
		<path fill="#222222" d="M121.6,32.3v-1.1l0,0c-0.3,0.5-0.6,0.8-1.1,1c-0.4,0.2-0.9,0.3-1.3,0.3c-0.6,0-1-0.1-1.4-0.2
			c-0.4-0.2-0.7-0.4-0.9-0.6c-0.2-0.3-0.4-0.6-0.4-1c-0.1-0.4-0.1-0.8-0.1-1.3v-4.8h2.1V29c0,0.6,0.1,1.1,0.3,1.4
			c0.2,0.3,0.6,0.5,1.1,0.5c0.6,0,1-0.2,1.3-0.5s0.4-0.9,0.4-1.7v-4.1h2.1v7.8L121.6,32.3L121.6,32.3z"/>
		<path fill="#222222" d="M129.6,24.5v1.4H128v3.9c0,0.4,0.1,0.6,0.2,0.7s0.4,0.2,0.7,0.2c0.1,0,0.2,0,0.3,0s0.2,0,0.3,0v1.7
			c-0.2,0-0.4,0.1-0.6,0.1c-0.2,0-0.4,0-0.6,0c-0.3,0-0.6,0-0.9-0.1c-0.3,0-0.6-0.1-0.8-0.3c-0.2-0.1-0.4-0.3-0.5-0.6
			c-0.1-0.2-0.2-0.6-0.2-1v-4.6h-1.3v-1.4h1.3v-1.8l2.1-0.8v2.6C128,24.5,129.6,24.5,129.6,24.5z"/>
		<path fill="#222222" d="M130.7,23.2v-1.8h2.1v1.8H130.7z M132.8,24.5v7.8h-2.1v-7.8H132.8z"/>
		<path fill="#222222" d="M138.2,25.9c-0.3,0-0.6,0.1-0.9,0.2c-0.2,0.2-0.4,0.4-0.6,0.6c-0.1,0.2-0.2,0.5-0.3,0.8s-0.1,0.6-0.1,0.9
			s0,0.6,0.1,0.9s0.2,0.6,0.3,0.8c0.1,0.2,0.3,0.4,0.6,0.6c0.2,0.2,0.5,0.2,0.8,0.2c0.5,0,0.9-0.1,1.2-0.4s0.5-0.7,0.5-1.2h2.1
			c-0.1,1-0.5,1.8-1.2,2.4c-0.7,0.5-1.5,0.8-2.6,0.8c-0.6,0-1.1-0.1-1.6-0.3s-0.9-0.5-1.2-0.8c-0.3-0.4-0.6-0.8-0.8-1.3
			s-0.3-1-0.3-1.6s0.1-1.2,0.3-1.7s0.4-1,0.8-1.3c0.3-0.4,0.8-0.7,1.3-0.9c0.5-0.2,1.1-0.3,1.7-0.3c0.5,0,0.9,0.1,1.3,0.2
			c0.4,0.1,0.8,0.3,1.1,0.6c0.3,0.2,0.6,0.6,0.8,0.9c0.2,0.4,0.3,0.8,0.4,1.3h-2.1C139.7,26.3,139.1,25.9,138.2,25.9z"/>
		<path fill="#222222" d="M145,30.3c0.1,0.2,0.2,0.3,0.4,0.4s0.3,0.2,0.5,0.2c0.2,0.1,0.4,0.1,0.6,0.1c0.2,0,0.3,0,0.5-0.1
			c0.2,0,0.3-0.1,0.5-0.2c0.1-0.1,0.2-0.2,0.3-0.3c0.1-0.1,0.1-0.3,0.1-0.5c0-0.3-0.2-0.6-0.6-0.7c-0.4-0.2-1-0.3-1.8-0.5
			c-0.3-0.1-0.6-0.2-0.9-0.2c-0.3-0.1-0.6-0.2-0.8-0.4c-0.2-0.2-0.4-0.4-0.6-0.6c-0.1-0.2-0.2-0.5-0.2-0.9c0-0.5,0.1-0.9,0.3-1.2
			c0.2-0.3,0.5-0.6,0.8-0.8c0.3-0.2,0.7-0.3,1.1-0.4c0.4-0.1,0.8-0.1,1.2-0.1s0.8,0,1.2,0.1s0.8,0.2,1.1,0.4
			c0.3,0.2,0.6,0.4,0.8,0.8c0.2,0.3,0.3,0.7,0.4,1.2h-2c0-0.4-0.2-0.7-0.5-0.8c-0.3-0.1-0.6-0.2-1-0.2c-0.1,0-0.3,0-0.4,0
			c-0.1,0-0.3,0-0.4,0.1c-0.1,0.1-0.2,0.1-0.3,0.2s-0.1,0.2-0.1,0.4c0,0.2,0.1,0.3,0.2,0.5c0.1,0.1,0.3,0.2,0.6,0.3
			c0.2,0.1,0.5,0.1,0.8,0.2s0.6,0.1,0.9,0.2c0.3,0.1,0.6,0.2,0.9,0.3c0.3,0.1,0.6,0.2,0.8,0.4c0.2,0.2,0.4,0.4,0.6,0.6
			c0.1,0.2,0.2,0.6,0.2,0.9c0,0.5-0.1,0.9-0.3,1.3c-0.2,0.3-0.5,0.6-0.8,0.8c-0.3,0.2-0.7,0.4-1.1,0.4c-0.4,0.1-0.9,0.1-1.3,0.1
			c-0.5,0-0.9,0-1.3-0.1c-0.4-0.1-0.8-0.2-1.2-0.5c-0.3-0.2-0.6-0.5-0.8-0.8s-0.3-0.8-0.4-1.3h2C144.8,30,144.9,30.2,145,30.3z"/>
	</g>
</g>
</svg>
