<?xml version="1.0" encoding="utf-8"?>
<!-- Generator: Adobe Illustrator 28.0.0, SVG Export Plug-In . SVG Version: 6.00 Build 0)  -->
<svg version="1.1" id="Layer_1" xmlns="http://www.w3.org/2000/svg" xmlns:xlink="http://www.w3.org/1999/xlink" x="0px" y="0px"
	 viewBox="0 0 200 55" style="enable-background:new 0 0 200 55;" xml:space="preserve">
<style type="text/css">
	.st0{fill:#2689FF;}
</style>
<g>
	<polygon class="st0" points="43.89,24.58 28.45,8.67 20.6,8.67 36.08,24.58 23.65,24.58 8.21,8.67 0.36,8.67 18.54,27.37 
		0.16,46.07 8.04,46.07 23.65,30.17 36.08,30.17 20.42,46.07 28.28,46.07 43.89,30.17 69.06,30.17 74.62,24.58 	"/>
	<path class="st0" d="M150.17,7.5l-17.25,17.08h-22.84c-1.86,1.86-3.73,3.72-5.59,5.59h28.43l17.25,17.08l49.99-19.88L150.17,7.5z
		 M138.08,27.37l13.45-13.32l33.49,13.32l-33.49,13.32L138.08,27.37z"/>
	<path class="st0" d="M72.24,49.3c0.55-0.61,0.84-0.96,1.16-1.28c13.38-13.45,26.69-26.96,40.22-40.26
		c2.42-2.38,2.65-4.75,2.23-7.86c-0.73,0-1.43,0-2.13,0c-15.22,0-30.44,0-45.66,0c-3.94,0-3.86,0-3.96,3.82
		c-0.05,1.68,0.5,2.11,2.14,2.1c12.69-0.06,25.38-0.03,38.08-0.03c0.6,0,1.21,0,2.2,0c-0.71,0.76-1.06,1.16-1.44,1.54
		c-13.64,13.7-27.28,27.39-40.91,41.1c-0.48,0.49-1.1,1.1-1.16,1.7c-0.16,1.57-0.06,3.17-0.06,4.77c18.21,0,36.22,0,54.2,0
		c0-1.9,0-3.66,0-5.6C102.21,49.3,87.4,49.3,72.24,49.3z"/>
	<path class="st0" d="M72.24,49.3c15.16,0,29.98,0,44.92,0c0,1.95,0,3.71,0,5.6c-17.98,0-35.99,0-54.2,0c0-1.6-0.11-3.2,0.06-4.77
		c0.06-0.6,0.68-1.21,1.16-1.7c13.63-13.71,27.27-27.4,40.91-41.1c0.37-0.38,0.73-0.78,1.44-1.54c-0.99,0-1.6,0-2.2,0
		c-12.69,0-25.38-0.03-38.08,0.03c-1.64,0.01-2.19-0.42-2.14-2.1c0.11-3.82,0.02-3.82,3.96-3.82c15.22,0,30.44,0,45.66,0
		c0.7,0,1.4,0,2.13,0c0.42,3.1,0.19,5.48-2.23,7.86c-13.53,13.3-26.84,26.82-40.22,40.26C73.08,48.34,72.79,48.69,72.24,49.3z"/>
</g>
</svg>
