<?xml version="1.0" encoding="utf-8"?>
<!-- Generator: Adobe Illustrator 28.0.0, SVG Export Plug-In . SVG Version: 6.00 Build 0)  -->
<svg version="1.1" id="Layer_1" xmlns="http://www.w3.org/2000/svg" xmlns:xlink="http://www.w3.org/1999/xlink" x="0px" y="0px"
	 viewBox="0 0 1000 55" style="enable-background:new 0 0 1000 55;" xml:space="preserve">
<style type="text/css">
	.st0{fill:#2689FF;}
</style>
<g>
	<g>
		<g>
			<path class="st0" d="M772.42,53.64c-3.03,0-5.54,0.07-8.04-0.05c-0.62-0.03-1.29-0.63-1.79-1.12
				c-6.33-6.28-12.65-12.57-18.92-18.91c-0.88-0.89-1.77-1.25-3.01-1.24c-5.21,0.05-10.41,0.02-15.62,0.03
				c-0.56,0-1.11,0.05-1.81,0.09c0,7.06,0,14,0,21.08c-2.1,0-4.06,0-6.13,0c-0.03-0.58-0.07-1.13-0.07-1.69
				c0-16.34,0.02-32.67-0.04-49.01c-0.01-1.65,0.45-2.1,2.1-2.09c10.76,0.07,21.51,0.02,32.27,0.05c3.44,0.01,6.85,0.28,10.08,1.66
				c5.79,2.47,9.1,6.77,9.49,13.08c0.41,6.77-2.56,11.65-8.65,14.62c-3.04,1.48-6.3,1.97-9.64,2.04c-0.55,0.01-1.1,0-2.2,0
				C757.88,39.45,764.96,46.36,772.42,53.64z M723.29,6.41c0,6.88,0,13.53,0,20.24c0.45,0.04,0.78,0.09,1.12,0.09
				c9.15,0,18.29,0.02,27.44-0.03c1.53-0.01,3.08-0.24,4.58-0.57c7.33-1.6,10.56-9.37,6.26-15.2c-2.34-3.18-5.83-4.37-9.61-4.44
				c-7.94-0.14-15.89-0.07-23.84-0.09C727.31,6.4,725.38,6.41,723.29,6.41z"/>
			<path class="st0" d="M266.25,53.65c-0.04-0.77-0.08-1.33-0.08-1.89c0-16.29,0.02-32.57-0.04-48.85
				c-0.01-1.77,0.52-2.21,2.23-2.18c9.04,0.14,18.09-0.03,27.12,0.27c7.51,0.25,14.22,2.72,19.37,8.53
				c3.68,4.16,5.32,9.16,5.76,14.55c0.42,5.16,0.02,10.29-2.14,15.11c-3.34,7.44-9.28,11.74-17.08,13.49
				c-2.82,0.63-5.76,0.89-8.66,0.94c-8.13,0.12-16.25,0.04-24.38,0.04C267.71,53.65,267.08,53.65,266.25,53.65z M272.38,47.95
				c0.23,0.07,0.39,0.16,0.54,0.16c7.77-0.09,15.56,0.07,23.31-0.39c5.77-0.34,10.86-2.68,14.39-7.57
				c3.29-4.55,3.95-9.76,3.61-15.16c-0.29-4.73-1.72-9.07-5.13-12.55c-4.13-4.22-9.38-5.77-15.06-5.95
				c-5.94-0.18-11.89-0.07-17.84-0.08c-1.24,0-2.49,0-3.83,0C272.38,20.38,272.38,34.16,272.38,47.95z"/>
			<path class="st0" d="M204.85,0.86c0,1.61,0.08,3.14-0.06,4.65c-0.03,0.33-0.81,0.85-1.26,0.86c-3.09,0.08-6.18,0.04-9.27,0.04
				c-10.59,0-21.17,0-31.76,0c-0.68,0-1.35,0-2.14,0c0,5.83,0,11.51,0,17.39c12.36,0,24.68,0,37.13,0c0,1.88,0,3.57,0,5.47
				c-12.36,0-24.68,0-37.12,0c0,6.35,0,12.48,0,18.79c14.74,0,29.48,0,44.36,0c0,1.89,0,3.62,0,5.48c-16.79,0-33.59,0-50.53,0
				c-0.03-0.46-0.1-0.95-0.1-1.44c-0.01-16.51,0.01-33.02-0.04-49.54c0-1.45,0.44-1.82,1.85-1.82c15.74,0.04,31.48,0.03,47.21,0.03
				C203.62,0.76,204.12,0.82,204.85,0.86z"/>
			<path class="st0" d="M578.66,44.85c0-0.67,0-1.34,0-2.01c0-13.37,0.03-26.74-0.04-40.11c-0.01-1.62,0.49-2.03,2.04-2
				c4.09,0.07,4.09,0.01,4.09,4.02c0,15.54,0,31.08,0,46.62c0,0.67,0,1.35,0,2.26c-2.19,0-4.23,0.07-6.25-0.05
				c-0.5-0.03-1.03-0.65-1.44-1.09c-12.88-13.78-25.75-27.58-38.61-41.38c-0.37-0.4-0.71-0.83-1.07-1.25
				c-0.14,0.07-0.27,0.14-0.41,0.21c0,14.47,0,28.93,0,43.48c-2.08,0-3.95,0-6.09,0c0-0.59,0-1.19,0-1.79
				c0-16.34,0.02-32.68-0.04-49.02c-0.01-1.57,0.43-1.96,1.99-2.05c2.85-0.16,4.91,0.57,6.97,2.83
				c12.52,13.72,25.26,27.26,37.91,40.86c0.19,0.2,0.29,0.49,0.43,0.74C578.32,45.04,578.49,44.94,578.66,44.85z"/>
			<path class="st0" d="M522.03,0.84c0,1.88,0,3.63,0,5.53c-14.8,0-29.48,0-44.33,0c0,5.83,0,11.5,0,17.4c12.26,0,24.58,0,37.03,0
				c0,1.91,0,3.59,0,5.51c-12.31,0-24.63,0-37.07,0c0,6.36,0,12.5,0,18.81c14.79,0,29.53,0,44.37,0c0,1.92,0,3.66,0,5.48
				c-16.85,0-33.6,0-50.51,0c-0.04-0.5-0.11-0.99-0.11-1.48c-0.01-16.51,0.01-33.02-0.03-49.53c0-1.25,0.2-1.83,1.66-1.82
				c15.91,0.05,31.82,0.03,47.73,0.03C521.12,0.76,521.45,0.8,522.03,0.84z"/>
			<path class="st0" d="M824.14,29.31c-12.34,0-24.62,0-37.04,0c0,6.31,0,12.44,0,18.78c14.75,0,29.48,0,44.33,0
				c0,1.89,0,3.57,0,5.41c-16.78,0-33.56,0-50.58,0c0-0.59,0-1.2,0-1.8c0-16.29,0.02-32.57-0.03-48.86
				c-0.01-1.62,0.4-2.13,2.08-2.12c15.57,0.06,31.14,0.06,46.7,0c1.63-0.01,2.12,0.49,1.97,2.03c-0.11,1.12-0.02,2.26-0.02,3.62
				c-14.9,0-29.62,0-44.47,0c0,5.9,0,11.58,0,17.42c12.36,0,24.64,0,37.06,0C824.14,25.69,824.14,27.41,824.14,29.31z"/>
			<path class="st0" d="M837.32,49.35c0.84-1.82,1.63-3.51,2.31-4.97c4.36,1.24,8.51,2.71,12.79,3.56
				c7.97,1.59,16.01,1.87,23.92-0.51c1.66-0.5,3.31-1.33,4.72-2.36c4.5-3.28,4.03-9.57-1.04-11.85c-2.76-1.25-5.86-1.86-8.86-2.45
				c-6.83-1.35-13.69-2.49-20.53-3.79c-1.1-0.21-2.16-0.75-3.2-1.21c-9.98-4.38-8.29-16.04-2.05-20.8c4.52-3.45,9.74-4.8,15.22-5.08
				c9.35-0.49,18.48,0.69,27.2,4.32c0.31,0.13,0.6,0.29,1.07,0.52c-0.77,1.71-1.52,3.34-2.31,5.09c-2.52-0.81-4.92-1.71-7.38-2.34
				c-8.06-2.05-16.2-3.09-24.37-0.76c-1.93,0.55-3.87,1.55-5.42,2.81c-4.03,3.28-3.38,8.82,1.41,10.8
				c3.23,1.33,6.77,1.97,10.22,2.66c6.32,1.28,12.67,2.36,19,3.55c0.67,0.13,1.3,0.44,1.94,0.68c4.72,1.81,8,4.83,8.5,10.15
				c0.58,6.15-2.04,10.6-7.39,13.51c-3.88,2.11-8.1,3.08-12.45,3.5c-10.81,1.04-21.34-0.1-31.47-4.17
				C838.58,49.98,838.04,49.69,837.32,49.35z"/>
			<path class="st0" d="M102.09,48.15c14.42,0,28.52,0,42.73,0c0,1.87,0,3.56,0,5.38c-17.11,0-34.24,0-51.56,0
				c0-1.53-0.1-3.07,0.05-4.57c0.06-0.58,0.64-1.16,1.1-1.63c12.96-13.15,25.94-26.29,38.92-39.43c0.36-0.36,0.69-0.74,1.37-1.48
				c-0.95,0-1.52,0-2.1,0c-12.07,0-24.15-0.03-36.22,0.03c-1.56,0.01-2.08-0.41-2.04-2.01c0.1-3.66,0.02-3.67,3.77-3.67
				c14.48,0,28.96,0,43.43,0c0.67,0,1.34,0,2.03,0c0.4,2.98,0.18,5.26-2.12,7.54c-12.87,12.76-25.53,25.72-38.26,38.62
				C102.89,47.22,102.62,47.56,102.09,48.15z"/>
			<path class="st0" d="M383.62,53.64c-2.25,0-4.29,0.07-6.32-0.05c-0.46-0.03-1.03-0.62-1.28-1.1c-1.76-3.33-3.48-6.69-5.13-10.07
				c-0.44-0.9-0.97-1.21-1.96-1.2c-10.53,0.03-21.06,0.04-31.59,0c-1.05,0-1.64,0.29-2.12,1.26c-1.6,3.28-3.35,6.49-4.92,9.79
				c-0.53,1.12-1.18,1.48-2.36,1.41c-1.63-0.09-3.27-0.02-5.22-0.02c1.61-3.11,3.06-5.93,4.53-8.75
				c7.39-14.17,14.81-28.33,22.16-42.53c0.66-1.27,1.47-1.49,2.78-1.67c3.02-0.41,4.48,0.83,5.84,3.5
				c8.19,16.07,16.6,32.03,24.94,48.03C383.16,52.62,383.33,53.02,383.62,53.64z M338.77,35.63c9.65,0,18.99,0,28.6,0
				c-4.78-9.32-9.46-18.45-14.3-27.91C348.2,17.22,343.53,26.33,338.77,35.63z"/>
			<path class="st0" d="M652.09,0.76c1.77,0,3.3,0.05,4.83-0.02c1.09-0.04,1.35,0.45,1.34,1.44c-0.04,3.89-0.02,7.77-0.02,11.66
				c0,5.31-0.02,10.63,0.01,15.94c0.07,11.2,6.67,18.31,17.9,19.17c5.38,0.41,10.66-0.06,15.37-3.06c5.67-3.62,8.02-9.06,8.09-15.55
				c0.1-9.2,0.07-18.4,0.01-27.6c-0.01-1.56,0.4-2.18,2.01-2.02c1.29,0.13,2.6,0.03,3.99,0.03c0.05,0.63,0.12,1.07,0.12,1.52
				c0,9.43-0.05,18.86,0,28.28c0.08,13.41-8.25,22.19-21.21,23.81c-7.21,0.9-14.3,0.49-20.88-2.99
				c-6.61-3.49-10.33-9.13-11.16-16.45c-0.49-4.35-0.35-8.77-0.39-13.16C652.06,14.86,652.09,7.96,652.09,0.76z"/>
			<path class="st0" d="M405.15,0.78c2.34,0,4.39-0.07,6.43,0.06c0.44,0.03,0.98,0.69,1.22,1.18c5.07,10.16,10.11,20.34,15.16,30.52
				c2,4.04,4.01,8.08,6.02,12.11c0.27,0.54,0.58,1.06,1.02,1.87c1.92-3.88,3.72-7.49,5.51-11.1c5.47-11.05,10.95-22.09,16.37-33.17
				c0.57-1.17,1.24-1.59,2.49-1.52c1.57,0.09,3.15,0.02,5.06,0.02c-0.85,1.73-1.53,3.15-2.24,4.56
				c-7.85,15.47-15.74,30.93-23.52,46.44c-0.76,1.52-1.64,1.87-3.25,1.97c-2.58,0.16-3.97-0.59-5.19-3.06
				c-8.01-16.16-16.25-32.21-24.4-48.3C405.62,1.97,405.47,1.55,405.15,0.78z"/>
			<path class="st0" d="M615.8,6.41c-8.07,0-15.83,0-23.72,0c0-1.88,0-3.62,0-5.56c0.58-0.03,1.19-0.08,1.79-0.09
				c16.65,0,33.31,0.02,49.96-0.04c1.7-0.01,2.23,0.53,2.06,2.14c-0.12,1.06-0.02,2.15-0.02,3.48c-8,0-15.85,0-23.9,0
				c0,15.87,0,31.49,0,47.21c-2.13,0-4.05,0-6.16,0C615.8,37.92,615.8,22.3,615.8,6.41z"/>
			<path class="st0" d="M219.67,0.76c0,15.86,0,31.49,0,47.33c12.87,0,25.59,0,38.42,0c0,1.89,0,3.58,0,5.42
				c-14.77,0-29.54,0-44.46,0c-0.03-0.56-0.08-1.12-0.08-1.67c0-16.34,0.02-32.68-0.04-49.02c-0.01-1.68,0.49-2.24,2.13-2.08
				C216.89,0.86,218.15,0.76,219.67,0.76z"/>
		</g>
	</g>
	<path class="st0" d="M1000.16,27.11L952.61,8.04l-16.41,16.39h-22.97v5.36h22.97l16.41,16.39L1000.16,27.11z M953.9,14.34
		l31.86,12.77L953.9,39.88L941.1,27.11L953.9,14.34z"/>
	<polygon class="st0" points="41.76,24.43 27.07,9.17 19.6,9.17 34.33,24.43 22.51,24.43 7.82,9.17 0.35,9.17 17.65,27.11 
		0.16,45.05 7.66,45.05 22.51,29.79 34.33,29.79 19.44,45.05 26.91,45.05 41.76,29.79 73.82,29.79 73.82,24.43 	"/>
</g>
</svg>
