<?xml version="1.0" standalone="no"?>
<!DOCTYPE svg PUBLIC "-//W3C//DTD SVG 1.1//EN" "http://www.w3.org/Graphics/SVG/1.1/DTD/svg11.dtd" >
<svg xmlns="http://www.w3.org/2000/svg" xmlns:xlink="http://www.w3.org/1999/xlink" version="1.1">
<metadata></metadata>
<defs>
<font id="tremoloregular" horiz-adv-x="833" >
<font-face units-per-em="1000" ascent="750" descent="-250" />
<missing-glyph horiz-adv-x="220" />
<glyph unicode="ff" horiz-adv-x="804" d="M668 667q-94 0 -94 -127v-74h128l-15 -57h-113v-332l78 -12l25 -65h-292l25 65l78 12v332h-268v-332l78 -12l25 -65h-292l25 65l78 12v332h-77l11 51l66 17v53q0 94 48.5 140t124.5 46q47 0 111 -18l-12 -90l-61 -25l-10 82q-8 2 -21 2q-94 0 -94 -127v-74h268v64 q0 94 48.5 140t124.5 46q47 0 111 -18l-12 -90l-61 -25l-10 82q-8 2 -21 2z" />
<glyph unicode="fi" horiz-adv-x="651" d="M366 65l78 12v320l-45 12h-192v-332l78 -12l25 -65h-292l25 65l78 12v332h-77l11 51l66 17v29q0 75 22.5 127t58.5 74.5t79.5 32.5t87 5t79.5 -12.5t58 -16.5l23 -8l-1 -1l1 1l-12 -90l-61 -25l-10 82v0q-49 19 -88.5 22.5t-64 -7.5t-42.5 -27.5t-26.5 -41t-12.5 -44 t-5 -39.5v-72h161l162 5v-394l78 -12l25 -65h-292z" />
<glyph unicode="fl" horiz-adv-x="678" d="M381 64l78 13v599q-49 18 -88 21t-63.5 -8t-41.5 -27.5t-26 -41t-13 -43.5t-5 -40v-71h128l-15 -57h-113v-332l78 -12l25 -65h-292l25 65l78 12v332h-77l11 51l66 17v29q0 74 22.5 125.5t56 75t79.5 32.5t84.5 6t80.5 -12l86 12v-668l78 -13l25 -64h-292z" />
<glyph unicode="ffi" horiz-adv-x="1014" d="M715 65l78 12v320l-46 12h-192v-332l78 -12l25 -65h-292l25 65l78 12v332h-248v-332l78 -12l25 -65h-292l25 65l78 12v332h-77l11 51l66 17v53q0 94 48.5 140t124.5 46q47 0 111 -18l-12 -90l-61 -25l-10 82q-8 2 -21 2q-94 0 -94 -127v-74h248v40q0 75 22.5 126.5 t58.5 74.5t80 32.5t87.5 4.5t79.5 -12.5t59 -15.5l22 -9h-2h2l-12 -90l-61 -25l-10 82v1v-1q-49 19 -88.5 22.5t-64.5 -7.5t-42.5 -27.5t-26.5 -41t-13 -44t-5 -39.5v-71h162l162 5v-394l78 -12l25 -65h-292z" />
<glyph unicode="ffl" horiz-adv-x="1012" d="M714 64l78 13v599q-48 18 -87 21t-63.5 -8t-42 -27.5t-26 -41t-12.5 -43.5t-5 -39v-72h128l-15 -57h-113v-332l78 -12l25 -65h-292l25 65l78 12v332h-248v-332l78 -12l25 -65h-292l25 65l78 12v332h-77l11 51l66 17v53q0 94 48.5 140t124.5 46q47 0 111 -18l-12 -90 l-61 -25l-10 82q-8 2 -21 2q-94 0 -94 -127v-74h248v40q0 74 22.5 125.5t56 75t79.5 32.5t84.5 6t80.5 -12l85 13v-669l78 -13l25 -64h-292z" />
<glyph unicode="Th" horiz-adv-x="1156" d="M878 64l65 13v214q0 124 -94 124q-35 0 -71.5 -20t-54.5 -43v-275l65 -13l24 -64h-275l25 64l76 13v538h-287v-538l78 -12l25 -65h-296l25 65l78 12v538h-150q-11 -61 -11 -62l-61 -12l-8 138h503l189 37v-314q15 32 57.5 55.5t101.5 23.5q69 0 108 -36t39 -140 q0 -133 -5 -228l76 -13l25 -64h-272z" />
<glyph unicode="Tk" horiz-adv-x="1116" d="M955 0l-229 251v-174l78 -13l25 -64h-292l25 64l78 13v538h-288v-538l78 -12l25 -65h-296l25 65l78 12v538h-150q-11 -61 -11 -62l-61 -12l-8 138h505l189 37v-447l130 122l-54 9l-25 65h272l-23 -61l-93 -13l-122 -115l178 -199l70 -13l25 -64h-129z" />
<glyph unicode="Tl" horiz-adv-x="877" d="M578 64l78 13v538h-304v-538l78 -12l25 -65h-296l25 65l78 12v538h-150q-11 -61 -11 -62l-61 -12l-8 138h520l189 37v-639l78 -13l25 -64h-291z" />
<glyph unicode="Wh" horiz-adv-x="1537" d="M1258 64l65 13v214q0 124 -94 124q-35 0 -71.5 -20t-54.5 -43v-275l65 -13l24 -64h-275l25 64l76 13v549l-78 -12l-182 -614h-90l-131 567l-131 -567h-90l-183 614l-78 12l-24 65h295l-25 -65l-78 -12l137 -460l133 546h88l133 -546l136 460l-78 12l-24 65h192l163 25 v-314q15 32 57.5 55.5t101.5 23.5q69 0 108 -36t39 -140q0 -133 -5 -228l76 -13l25 -64h-272z" />
<glyph unicode="Vh" horiz-adv-x="1287" d="M1009 64l65 13v214q0 124 -94 124q-35 0 -71.5 -20t-54.5 -43v-275l65 -13l24 -64h-275l25 64l76 13v549l-78 -12l-223 -614h-112l-223 614l-78 12l-25 65h296l-25 -65l-78 -12l189 -521l189 521l-78 12l-25 65h193l163 25v-314q15 32 57.5 55.5t101.5 23.5q69 0 108 -36 t39 -140q0 -133 -5 -228l76 -13l25 -64h-272z" />
<glyph unicode="Wk" horiz-adv-x="1492" d="M1333 0l-229 251v-174l78 -13l25 -64h-292l25 64l78 13v548l-77 -11l-182 -614h-90l-131 567l-131 -567h-90l-183 614l-78 12l-24 65h295l-25 -65l-78 -12l137 -460l133 546h88l133 -546l136 460l-78 12l-24 65h192l163 25v-447l130 122l-54 9l-25 65h272l-23 -61 l-93 -13l-122 -115l178 -199l70 -13l25 -64h-129z" />
<glyph unicode="Vk" horiz-adv-x="1243" d="M1085 0l-229 251v-174l78 -13l25 -64h-292l25 64l78 13v549l-77 -12l-223 -614h-112l-223 614l-78 12l-25 65h296l-25 -65l-78 -12l189 -521l189 521l-78 12l-25 65h193l163 25v-447l130 122l-54 9l-25 65h272l-23 -61l-93 -13l-122 -115l178 -199l70 -13l25 -64h-129z " />
<glyph unicode="Wl" horiz-adv-x="1317" d="M1015 64l78 13v559l-153 -22l-182 -614h-90l-131 567l-131 -567h-90l-183 614l-78 12l-24 65h295l-25 -65l-78 -12l137 -460l133 546h88l133 -546l136 460l-78 12l-24 65h242l189 25v-639l78 -13l25 -64h-292z" />
<glyph unicode="Vl" horiz-adv-x="1068" d="M846 77v561v1l-153 -25l-223 -614h-112l-223 614l-78 12l-25 65h296l-25 -65l-78 -12l189 -521l189 521l-78 12l-25 65h243l189 25v-639l78 -13l25 -64h-292l25 64z" />
<glyph unicode="fb" horiz-adv-x="903" d="M689 474q74 0 128 -56.5t54 -178.5q0 -117 -65.5 -188.5t-170.5 -71.5q-98 0 -174 38v657q-59 23 -103.5 22.5t-69 -16t-40.5 -43.5t-20.5 -51t-6.5 -49v-71h128l-15 -57h-113v-332l78 -12l25 -65h-292l25 65l78 12v332h-77l11 51l66 17v29q0 75 23 126t56.5 74.5 t80.5 32t85.5 5.5t80.5 -12l84 13v-345q13 32 50.5 53t93.5 21zM626 35q77 0 116 51.5t39 140.5q0 85 -34.5 133.5t-90.5 48.5q-70 0 -111 -58v-303q39 -13 81 -13z" />
<glyph unicode="ffb" horiz-adv-x="1237" d="M1021 474q34 0 65 -12t58 -38t43 -73.5t16 -111.5q0 -117 -65.5 -188.5t-170.5 -71.5q-97 0 -174 38v657q-49 19 -88.5 22.5t-64 -7.5t-42.5 -27.5t-26.5 -41t-12.5 -44t-5 -39.5v-71h128l-15 -57h-113v-332l78 -12l25 -65h-292l25 65l78 12v332h-248v-332l78 -12l25 -65 h-292l25 65l78 12v332h-77l11 51l66 17v53q0 94 48.5 140t124.5 46q47 0 111 -18l-12 -90l-61 -25l-10 82q-8 2 -21 2q-94 0 -94 -127v-74h248v40q0 75 23 126t56.5 74.5t80 32t85.5 5.5t80 -12l85 13v-345q13 32 50.5 53t92.5 21zM958 35q78 0 117 51.5t39 140.5 q0 85 -34.5 133.5t-91.5 48.5q-69 0 -110 -58v-303q39 -13 80 -13z" />
<glyph unicode="fj" horiz-adv-x="579" d="M383 466l162 5v-644q-64 -61 -190 -61q-67 0 -107 20l23 134l59 -25l9 -66h7h8h7.5h6.5h2q42 0 90 25v544l-46 11h-193v-332l78 -12l25 -65h-292l25 65l78 12v332h-77l11 51l66 17v29q0 59 14 103.5t37.5 70.5t54.5 42t65 20t67.5 3t64.5 -7.5t54.5 -12.5t37.5 -11l14 -6 l-12 -90l-61 -25l-10 82v0q-58 22 -103 21.5t-69.5 -16t-40 -43.5t-21 -51.5t-6.5 -48.5v-71h162z" />
<glyph unicode="ffj" horiz-adv-x="913" d="M717 466l162 5v-644q-64 -61 -190 -61q-67 0 -107 20l23 134l59 -25l9 -66h7h8h7.5h6.5h2q42 0 90 25v544l-46 11h-193v-332l78 -12l25 -65h-292l25 65l78 12v332h-248v-332l78 -12l25 -65h-292l25 65l78 12v332h-77l11 51l66 17v53q0 94 48.5 140t124.5 46q47 0 111 -18 l-12 -90l-61 -25l-10 82q-8 2 -21 2q-94 0 -94 -127v-74h248v41q0 59 14 104t37.5 70.5t54.5 41.5t65 19.5t68 2.5t64.5 -7.5t54.5 -13t37 -11.5l14 -5l-12 -90l-61 -25l-10 82v0q-49 19 -88.5 22.5t-64.5 -7.5t-42.5 -27.5t-26.5 -41t-13 -44t-5 -39.5v-72h162z" />
<glyph unicode="fh" horiz-adv-x="976" d="M699 64l65 13v214q0 124 -94 124q-35 0 -71.5 -20t-54.5 -43v-275l65 -13l24 -64h-275l25 64l76 13v599q-49 19 -88 22t-63.5 -8.5t-42 -28t-26.5 -41t-13 -43.5t-5 -40v-71h128l-15 -57h-113v-332l78 -12l25 -65h-292l25 65l78 12v332h-77l11 51l66 17v29q0 54 12 96 t31 68t47 43t56 24t61.5 8t60.5 -2.5t56 -9.5l85 12v-37v0v-306q15 32 57.5 55.5t101.5 23.5q69 0 108 -36t39 -140q0 -133 -5 -228l76 -13l25 -64h-272z" />
<glyph unicode="ffh" horiz-adv-x="1312" d="M1033 64l65 13v214q0 124 -94 124q-35 0 -71.5 -20t-54.5 -43v-275l65 -13l24 -64h-275l25 64l76 13v598q-58 22 -102.5 21.5t-68.5 -16t-40 -43.5t-20.5 -51t-6.5 -49v-71h128l-15 -57h-113v-332l78 -12l25 -65h-292l25 65l78 12v332h-248v-332l78 -12l25 -65h-292 l25 65l78 12v332h-77l11 51l66 17v53q0 94 48.5 140t124.5 46q47 0 111 -18l-12 -90l-61 -25l-10 82q-8 2 -21 2q-94 0 -94 -127v-74h248v40q0 54 12 96t31 68t47 43t56 24t61.5 8t60.5 -2.5t56 -9.5l85 12v-343q15 32 57.5 55.5t101.5 23.5q69 0 108 -36t39 -140 q0 -133 -5 -228l76 -13l25 -64h-272z" />
<glyph unicode="fk" horiz-adv-x="934" d="M773 0l-229 251v-174l78 -13l25 -64h-292l25 64l78 13v599q-49 18 -88 21t-63.5 -8t-41.5 -27.5t-26 -41t-13 -43.5t-5 -39v-72h128l-15 -57h-113v-332l78 -12l25 -65h-292l25 65l78 12v332h-77l11 51l66 17v29q0 74 22.5 125.5t56 75t79.5 32.5t84.5 6.5t80.5 -11.5 l86 12v-38v0v-439l130 122l-54 9l-25 65h272l-23 -61l-93 -13l-122 -115l178 -199l70 -13l25 -64h-129z" />
<glyph unicode="ffk" horiz-adv-x="1268" d="M1107 0l-229 251v-174l78 -13l25 -64h-292l25 64l78 13v599q-49 18 -88 21t-63.5 -8t-41.5 -27.5t-26 -41t-13 -43.5t-5 -39v-72h128l-15 -57h-113v-332l78 -12l25 -65h-292l25 65l78 12v332h-248v-332l78 -12l25 -65h-292l25 65l78 12v332h-77l11 51l66 17v53 q0 94 48.5 140t124.5 46q47 0 111 -18l-12 -90l-61 -25l-10 82q-8 2 -21 2q-94 0 -94 -127v-74h248v40q0 74 22.5 125.5t56 75t79.5 32.5t84.5 6t80.5 -12l86 13v-477l130 122l-54 9l-25 65h272l-23 -61l-93 -13l-122 -115l178 -199l70 -13l25 -64h-129z" />
<glyph horiz-adv-x="0" />
<glyph horiz-adv-x="0" />
<glyph unicode="&#xd;" horiz-adv-x="267" />
<glyph unicode=" "  horiz-adv-x="220" />
<glyph unicode="&#x09;" horiz-adv-x="220" />
<glyph unicode="&#xa0;" horiz-adv-x="220" />
<glyph unicode="!" horiz-adv-x="174" d="M86 84q23 0 39.5 -16.5t16.5 -39.5t-16.5 -39t-39.5 -16t-39.5 16t-16.5 39t16.5 39.5t39.5 16.5zM117 156l-66 -5l-28 523l123 27z" />
<glyph unicode="&#x22;" horiz-adv-x="248" d="M99 700v-225l-67 -13v227zM215 700v-225l-67 -13v227z" />
<glyph unicode="#" horiz-adv-x="661" d="M451 258h169l5 -68h-189l-42 -188l-79 -15l45 203h-130l-42 -188l-79 -15l45 203h-118l5 68h127l31 141h-163l5 67h173l43 195l79 8l-45 -203h129l43 195l80 8l-45 -203h122l5 -67h-142zM375 258l31 141h-130l-31 -141h130z" />
<glyph unicode="$" horiz-adv-x="518" d="M472 185q0 -85 -46 -132.5t-123 -62.5v-76l-74 -5v73h-4q-106 0 -195 37l22 131l59 -24l6 -49q50 -24 112 -26v266q-42 18 -65.5 31t-54 37.5t-44.5 59t-14 80.5q0 70 48 116.5t130 56.5v60l74 17v-76q81 -7 145 -33l-10 -91l-59 -24l-11 62q-26 15 -65 20v-243 q39 -18 63 -32t51.5 -38t41 -57.5t13.5 -77.5zM148 539q0 -67 81 -113v203q-38 -9 -59.5 -33t-21.5 -57zM303 59q73 23 73 110q0 71 -73 112v-222z" />
<glyph unicode="%" horiz-adv-x="709" d="M527 246q55 0 94.5 -32t39.5 -87q0 -58 -39.5 -92.5t-94.5 -34.5q-58 0 -96 33t-38 94q0 53 40.5 86t93.5 33zM527 45q36 0 52.5 19t16.5 63q0 74 -69 74q-70 0 -70 -74q0 -82 70 -82zM178 434q-58 0 -96 33.5t-38 93.5q0 53 40.5 86t93.5 33q55 0 94.5 -32t39.5 -87 q0 -58 -39.5 -92.5t-94.5 -34.5zM178 636q-70 0 -70 -75q0 -82 70 -82q36 0 52.5 19t16.5 63q0 75 -69 75zM564 803l78 11l-513 -937l-80 -13z" />
<glyph unicode="&#x26;" horiz-adv-x="739" d="M689 65l25 -65h-127l-80 73q-62 -87 -218 -87q-257 0 -257 203q0 70 39 112t107 76q-40 38 -58.5 70t-18.5 82q0 15 5 47q12 63 58.5 97.5t118.5 34.5q50 0 90 -28q85 -59 87 -151q2 -106 -92 -166q-23 -13 -24 -14l140 -133q9 39 9 91l-35 12l-25 45h154 q-1 -115 -35 -213l79 -74zM283 630q-48 0 -70.5 -29t-18.5 -67q1 -11 10 -25.5t17 -25t27 -31.5t26 -29l5 2.5t4 2.5q89 48 89 115q0 34 -26 60.5t-63 26.5zM233 65q55 -8 84 -5q83 9 129 70l-193 177h-1q-29 -13 -47 -23.5t-38.5 -26.5t-30 -37.5t-9.5 -47.5 q0 -42 31 -71.5t75 -35.5z" />
<glyph unicode="'" horiz-adv-x="131" d="M99 700v-225l-67 -13v227z" />
<glyph unicode="(" horiz-adv-x="183" d="M119 -244q-117 262 -117 482q0 207 102 448l79 14q-42 -97 -66.5 -218.5t-24.5 -237.5q0 -232 90 -464z" />
<glyph unicode=")" horiz-adv-x="181" d="M1 -220q90 232 90 464q0 116 -24.5 237.5t-66.5 218.5l78 -14q103 -240 103 -448q0 -221 -118 -482z" />
<glyph unicode="*" horiz-adv-x="405" d="M28 526l24 75l123 -51l-11 127l77 10l-12 -137l126 51l24 -75l-132 -30l91 -100l-64 -45l-73 114l-69 -114l-62 45l88 100z" />
<glyph unicode="+" horiz-adv-x="455" d="M434 224h-170v-170h-67v170h-171l6 67h165v160l67 11v-171h165z" />
<glyph unicode="," horiz-adv-x="170" d="M36 47l104 -32l-105 -190l-66 -13l69 159l-38 26z" />
<glyph unicode="-" horiz-adv-x="449" d="M27 335h397l5 -67h-408z" />
<glyph unicode="." horiz-adv-x="156" d="M78 90q22 0 37 -15t15 -36t-15 -36t-37 -15q-21 0 -36 15t-15 36t15 36t36 15z" />
<glyph unicode="/" horiz-adv-x="471" d="M26 -153l341 939l78 11l-340 -937z" />
<glyph unicode="0" horiz-adv-x="532" d="M266 677q99 0 168 -101.5t69 -245.5t-69 -245.5t-168 -101.5q-98 0 -167 101.5t-69 245.5t69 245.5t167 101.5zM266 49q66 0 104 79.5t38 201.5t-38 201.5t-104 79.5q-65 0 -103 -80t-38 -201t38 -201t103 -80z" />
<glyph unicode="1" horiz-adv-x="357" d="M30 612l104 44h90v-579l78 -12l25 -65h-296l25 65l78 12v488l-89 -31z" />
<glyph unicode="2" horiz-adv-x="462" d="M424 144l8 -144h-401v73q22 29 80 91.5t101.5 111t79.5 111.5t36 112q0 53 -28.5 81t-82.5 28q-52 0 -103 -23l-11 -61l-59 24l-11 86q88 40 188 40q90 0 146.5 -39t56.5 -118q0 -51 -27 -110.5t-74 -119t-86 -103t-86 -91.5l-20 -20h222q11 57 11 58z" />
<glyph unicode="3" horiz-adv-x="463" d="M269 340q72 -9 118 -53t46 -115q0 -95 -71 -143.5t-178 -48.5q-39 0 -81 16t-69 39l-6 59q61 -43 163 -43q62 0 103.5 28t41.5 87q0 76 -45 107.5t-154 33.5v63q91 3 137.5 34t46.5 99q0 55 -32.5 81t-77.5 26q-50 0 -101 -17l-10 -55l-59 24l-11 86q75 26 192 26 q82 0 138 -41t56 -122q0 -61 -35 -104t-98 -59l-25 -6z" />
<glyph unicode="4" horiz-adv-x="516" d="M293 77v113h-263v68l261 406h92l1 -410h87v-64h-87h-1v-113l78 -12l25 -65h-296l25 65zM98 254h196v312z" />
<glyph unicode="5" horiz-adv-x="456" d="M221 394q88 0 146.5 -51.5t58.5 -149.5q0 -103 -69.5 -158t-167.5 -55q-75 0 -149 48l-10 62q86 -43 158 -43q60 0 101.5 37t41.5 100q0 148 -155 148q-60 0 -120 -11v333h351l-11 -83h-249v-184q35 7 74 7z" />
<glyph unicode="6" horiz-adv-x="493" d="M130 336q16 32 53.5 53t91.5 21q96 0 147 -55t51 -147q0 -106 -57.5 -167t-154.5 -61q-231 0 -231 300q0 394 284 394q37 0 78 -10.5t63 -27.5l-34 -48q-50 17 -109 17q-94 0 -138 -70t-51 -215zM124 267q0 -115 33.5 -171t106.5 -56q55 0 86.5 44.5t31.5 118.5 q0 69 -32.5 106.5t-95.5 37.5q-68 0 -130 -64v-16z" />
<glyph unicode="7" horiz-adv-x="473" d="M30 652h413v-75l-240 -577h-93l247 571h-251q-8 -44 -8 -45l-60 -12z" />
<glyph unicode="8" horiz-adv-x="534" d="M504 187q0 -77 -47.5 -123.5t-126.5 -61.5q-27 -6 -52 -6h-23q-25 0 -51 6q-79 15 -126.5 61.5t-47.5 123.5q0 57 30 97t81 59q-90 37 -90 154q0 87 54 138v0q32 30 87 44q35 10 63 10h23q28 0 63 -10q54 -14 87 -44v0q54 -51 54 -138q0 -117 -89 -154q51 -19 81 -59 t30 -97zM267 618q-60 -1 -100.5 -29.5t-40.5 -85.5q0 -68 33.5 -102.5t107.5 -34.5q140 0 140 137q0 57 -40.5 85.5t-99.5 29.5zM267 318q-141 0 -141 -137q0 -57 40.5 -85.5t100.5 -29.5q59 1 99.5 29.5t40.5 85.5q0 68 -33 102.5t-107 34.5z" />
<glyph unicode="9" horiz-adv-x="508" d="M374 334q-15 -31 -52 -51.5t-88 -20.5q-97 0 -150.5 56t-53.5 145q0 102 57.5 161t153.5 59q232 0 232 -310q0 -186 -70.5 -284.5t-191.5 -98.5q-100 0 -162 51l-11 56q72 -33 167 -33q166 0 177 286zM241 626q-57 0 -88.5 -43t-31.5 -114q0 -67 35 -105.5t101 -38.5 q71 0 122 65q0 120 -32.5 178t-105.5 58z" />
<glyph unicode=":" horiz-adv-x="172" d="M142 416q0 -23 -16.5 -39.5t-39.5 -16.5t-39.5 16.5t-16.5 39.5t16.5 39.5t39.5 16.5t39.5 -16.5t16.5 -39.5zM142 94q0 -23 -16.5 -39.5t-39.5 -16.5t-39.5 16.5t-16.5 39.5t16.5 39.5t39.5 16.5t39.5 -16.5t16.5 -39.5z" />
<glyph unicode=";" horiz-adv-x="172" d="M49 78l-37 26l35 50l105 -32l-106 -190l-66 -13zM142 420q0 -23 -16.5 -39.5t-39.5 -16.5t-39.5 16.5t-16.5 39.5t16.5 39.5t39.5 16.5t39.5 -16.5t16.5 -39.5z" />
<glyph unicode="&#x3c;" horiz-adv-x="373" d="M109 326l238 -234l-50 -39l-263 233v81l263 233l50 -39z" />
<glyph unicode="=" horiz-adv-x="468" d="M433 306l5 -68h-408l6 68h397zM433 473l5 -67h-408l6 67h397z" />
<glyph unicode="&#x3e;" horiz-adv-x="372" d="M269 327l-238 234l50 39l263 -233v-81l-263 -233l-50 39z" />
<glyph unicode="?" horiz-adv-x="447" d="M200 89q23 0 39.5 -16.5t16.5 -39.5t-16.5 -39t-39.5 -16q-22 0 -38.5 16t-16.5 39t16 39.5t39 16.5zM198 697q99 0 156.5 -48.5t57.5 -126.5q0 -45 -13.5 -79t-41.5 -58t-51.5 -38t-63.5 -31l-8 -155l-67 -5l-12 233q50 16 79 31q85 45 85 116q0 43 -36 71.5t-95 28.5 q-55 0 -91 -21l-11 -62l-59 24l-11 87q87 33 182 33z" />
<glyph unicode="@" horiz-adv-x="912" d="M872 360q14 -71 8 -135t-30 -99q-57 -78 -145 -78h-158v46q-36 -60 -121 -60q-62 0 -107 48t-45 150q0 99 54.5 159.5t142.5 60.5q83 0 147 -35v-304l66 -11q74 -11 122 56q16 23 20.5 73t-8.5 118q-32 155 -142 234q-79 56 -190 61.5t-209 -42.5q-92 -46 -142.5 -127.5 t-53.5 -188.5q-3 -142 47 -232q42 -78 123 -119q66 -33 146 -36t141.5 15t98.5 47l34 -42q-43 -34 -111 -54.5t-141 -20.5q-107 0 -192 43q-208 103 -200 401q3 128 68 226q58 87 158 136q110 55 237 48.5t218 -71.5q127 -91 164 -267zM547 138v255q-30 12 -68 12 q-65 0 -97.5 -43.5t-32.5 -117.5q0 -73 29 -113.5t76 -40.5q60 0 93 48z" />
<glyph unicode="A" horiz-adv-x="810" d="M764 65l25 -65h-308l25 65l81 13l-55 144h-259l-54 -144l81 -13l25 -65h-308l25 65l81 13l237 615h85l238 -615zM295 278h216l-108 315z" />
<glyph unicode="B" horiz-adv-x="619" d="M434 362q70 -15 110 -56t40 -104q0 -102 -76.5 -152t-189.5 -50h-298l27 70l78 12v528l-78 12l-27 70h270q113 0 185.5 -46t72.5 -132q0 -54 -31.5 -94t-82.5 -54l-10 -2zM215 632v-244h92q74 0 112.5 29t38.5 94q0 58 -49.5 89.5t-129.5 31.5h-64zM306 60q185 0 185 134 q0 66 -49.5 100t-131.5 34h-95v-268h91z" />
<glyph unicode="C" horiz-adv-x="578" d="M357 56q38 0 96.5 16t101.5 35l-10 -60q-40 -27 -105 -47t-120 -20q-130 0 -211.5 97t-81.5 247q0 171 97.5 272.5t239.5 101.5q103 0 181 -38l-21 -131l-59 25l-8 57q-43 19 -98 19q-103 0 -169.5 -72.5t-66.5 -208.5q0 -145 63 -219t171 -74z" />
<glyph unicode="D" horiz-adv-x="685" d="M313 689q149 0 246 -88t97 -245q0 -177 -90 -266.5t-224 -89.5h-323l27 70l83 13v523l-83 13l-27 70h294zM314 62q121 1 184 70t63 219q0 131 -75 204.5t-190 73.5h-77v-567h95z" />
<glyph unicode="E" horiz-adv-x="540" d="M105 601l-78 13l-27 70h510l-8 -144l-60 12l-12 67h-235v-246h201l9 42l56 11v-169l-57 6l-8 46h-201v-247h239l12 73l66 12l8 -147h-518l25 64l78 13v524z" />
<glyph unicode="F" horiz-adv-x="532" d="M127 601l-78 13l-27 70h510l-8 -144l-60 12l-12 67h-235v-246h201l9 42l56 11v-169l-57 6l-8 46h-201v-232l78 -13l24 -64h-295l25 64l78 13v524z" />
<glyph unicode="G" horiz-adv-x="582" d="M366 364h191v-255v-45v-9q-39 -28 -109 -50.5t-125 -22.5q-130 0 -211.5 97t-81.5 247q0 171 97 272t240 101q105 0 181 -37l-22 -131l-59 24l-7 58q-45 19 -99 19q-103 0 -169.5 -72.5t-66.5 -208.5q0 -145 63 -219t171 -74q42 0 108 19v210l-76 12z" />
<glyph unicode="H" horiz-adv-x="756" d="M634 78l78 -13l25 -65h-296l25 65l78 13v244h-330v-244l78 -13l25 -65h-296l25 65l78 13v524l-78 12l-25 65h296l-25 -65l-78 -12v-216h330v216l-78 12l-25 65h296l-25 -65l-78 -12v-524z" />
<glyph unicode="I" horiz-adv-x="332" d="M212 77l78 -13l25 -64h-296l25 64l78 13v524l-78 12l-25 65h296l-25 -65l-78 -12v-524z" />
<glyph unicode="J" horiz-adv-x="522" d="M209 676h295l-25 -64l-78 -13v-560q-64 -61 -190 -61q-105 0 -194 37l21 126l59 -24l7 -49q51 -27 122 -27q40 0 86 27v531l-78 13z" />
<glyph unicode="K" horiz-adv-x="686" d="M576 77l67 -12l25 -65h-293l25 65l62 12l-249 254v-254l78 -12l25 -65h-296l25 65l78 12v524l-78 13l-25 64h296l-25 -64l-78 -13v-254l249 254l-62 13l-25 64h293l-25 -64l-67 -13l-257 -262z" />
<glyph unicode="L" horiz-adv-x="537" d="M512 138l8 -138h-500l25 65l78 12v524l-78 13l-25 64h296l-25 -64l-78 -13v-537h228q1 6 3.5 21.5t5.5 28.5l2 12z" />
<glyph unicode="M" horiz-adv-x="870" d="M748 77l78 -12l25 -65h-296l25 65l78 12v539l-177 -624h-93l-176 624v-539l78 -12l25 -65h-296l25 65l78 12v524l-78 13l-25 64h258l158 -580l157 580h259l-25 -64l-78 -13v-524z" />
<glyph unicode="N" horiz-adv-x="756" d="M439 678h295l-25 -64l-78 -13v-609h-112l-309 633v-548l78 -13l25 -64h-296l25 64l78 13v524l-78 13l-25 64h250l274 -576v499l-78 13z" />
<glyph unicode="O" horiz-adv-x="723" d="M692 341q0 -149 -96 -254t-235 -105v0v0q-140 0 -236 105t-96 254t96 254t236 105q139 0 235 -105t96 -254zM361 60q110 0 164.5 76t54.5 205q0 128 -54.5 204.5t-164.5 76.5t-165 -76.5t-55 -204.5t55 -204.5t165 -76.5v0v0z" />
<glyph unicode="P" horiz-adv-x="586" d="M362 684q89 -12 142 -63.5t53 -135.5q0 -106 -67.5 -161t-162.5 -55h-108v-192l78 -13l25 -64h-296l25 64l78 13v528l-84 13l-26 70h294q25 0 49 -4zM323 330q141 0 141 150q0 70 -47.5 108t-126.5 38h-71v-296h104z" />
<glyph unicode="Q" horiz-adv-x="740" d="M699 47l25 -65h-148l-52 51q-76 -51 -169 -51v0v0q-139 0 -234 104.5t-95 254.5t95 254.5t234 104.5t233.5 -105t94.5 -254q0 -150 -101 -259l22 -23zM355 55q75 0 118 28l-33 32l-94 13l-25 65h148l58 -57q55 77 55 205q0 127 -58.5 206.5t-168.5 79.5 q-111 0 -169.5 -79.5t-58.5 -206.5q0 -128 58.5 -207t169.5 -79v0v0z" />
<glyph unicode="R" horiz-adv-x="678" d="M387 0l25 64l62 13l-104 195q-21 -3 -42 -3h-109v-192l78 -13l25 -64h-296l25 64l78 13v528l-83 13l-27 70h294q25 0 49 -4q89 -12 142 -63.5t53 -135.5q0 -134 -110 -189l117 -219l67 -13l25 -64h-269zM324 330q141 0 141 150q0 70 -47.5 108t-126.5 38h-72v-296h105z " />
<glyph unicode="S" horiz-adv-x="488" d="M134 539q0 -34 18 -60.5t46.5 -43.5t63 -32.5t69 -33.5t63 -40.5t46.5 -59t18 -84.5q0 -55 -20.5 -95.5t-56 -63.5t-78 -33.5t-92.5 -10.5q-106 0 -195 37l22 131l59 -24l6 -49q53 -27 122 -27q137 0 137 119q0 49 -33.5 81.5t-81 52.5t-95.5 42.5t-81.5 67.5t-33.5 112 q0 78 59 126.5t158 48.5q96 0 180 -34l-10 -91l-59 -24l-11 62q-37 21 -91 21q-60 0 -94.5 -26t-34.5 -69z" />
<glyph unicode="T" horiz-adv-x="584" d="M16 679h550l-8 -138l-61 12l-11 62h-150v-538l78 -12l25 -65h-296l25 65l78 12v538h-150q-11 -61 -11 -62l-61 -12z" />
<glyph unicode="U" horiz-adv-x="765" d="M452 677h296l-25 -65l-78 -12v-358q0 -131 -62 -197t-198 -66h-2h-1q-136 0 -198 66t-62 197v358l-78 12l-25 65h296l-25 -65l-78 -12v-350q0 -207 171 -208q172 1 172 208v350l-78 12z" />
<glyph unicode="V" horiz-adv-x="716" d="M445 691h296l-25 -65l-78 -12l-223 -614h-112l-223 614l-78 12l-25 65h296l-25 -65l-78 -12l189 -521l189 521l-78 12z" />
<glyph unicode="W" horiz-adv-x="963" d="M693 691h295l-25 -65l-78 -12l-182 -614h-90l-131 567l-131 -567h-90l-183 614l-78 12l-24 65h295l-25 -65l-78 -12l137 -460l133 546h88l133 -546l136 460l-78 12z" />
<glyph unicode="X" horiz-adv-x="707" d="M403 0l25 65l67 12l-142 201l-143 -201l68 -12l24 -65h-290l25 65l78 12l190 269l-181 256l-78 12l-25 65h290l-25 -65l-67 -12l134 -189l134 189l-67 12l-25 65h290l-25 -65l-78 -12l-181 -256l190 -269l78 -12l25 -65h-291z" />
<glyph unicode="Y" horiz-adv-x="702" d="M394 679h290l-25 -65l-78 -12l-184 -260v-265l78 -12l25 -65h-296l25 65l78 12v265l-185 260l-78 12l-24 65h290l-25 -65l-67 -12l134 -189l134 189l-67 12z" />
<glyph unicode="Z" horiz-adv-x="536" d="M21 679h489v-65h-1l-395 -549h316q11 65 12 66l60 13l8 -144h-489v65l395 548l-315 1q-11 -60 -12 -61l-60 -12z" />
<glyph unicode="[" horiz-adv-x="273" d="M115 -146l103 -13l25 -64h-213v923h213l-25 -65l-103 -12v-769z" />
<glyph unicode="\" horiz-adv-x="480" d="M103 788l341 -939l-79 13l-340 937z" />
<glyph unicode="]" horiz-adv-x="273" d="M158 623l-103 12l-25 65h213v-923h-213l25 64l103 13v769z" />
<glyph unicode="^" horiz-adv-x="490" d="M282 700l179 -279l-51 -50l-165 274l-164 -274l-51 50l179 279h73z" />
<glyph unicode="_" horiz-adv-x="541" d="M506 0l5 -78h-481l5 78h471z" />
<glyph unicode="`" horiz-adv-x="305" d="M183 744l-139 145l95 26l114 -156z" />
<glyph unicode="a" horiz-adv-x="448" d="M428 45l20 -45h-169v26q-38 -38 -103 -38q-29 0 -54 6.5t-50 23t-39.5 51.5t-14.5 84q0 84 48.5 125.5t109.5 41.5q67 0 103 -33v126q-31 12 -62 12q-62 0 -103 -19l-2 -22l-49 -17l-17 87q70 26 159 26q106 0 159 -42v-385zM183 35q27 0 54 12t42 32v170q-23 20 -76 20 q-46 0 -72.5 -30.5t-26.5 -84.5q0 -71 21.5 -95t57.5 -24z" />
<glyph unicode="b" horiz-adv-x="535" d="M331 477q34 0 65 -12.5t58.5 -38.5t43.5 -73.5t16 -111.5q0 -118 -65.5 -190t-171.5 -72q-98 0 -175 39v616l-78 13l-25 64h188v-309q13 33 50.5 54t93.5 21zM268 36q78 0 117 51.5t39 140.5q0 86 -34.5 134.5t-91.5 48.5q-70 0 -111 -58v-304q39 -13 81 -13z" />
<glyph unicode="c" horiz-adv-x="407" d="M113 244q0 -93 42 -141.5t111 -48.5q60 0 118 26l-11 -58q-64 -35 -145 -35q-94 0 -151 67.5t-57 171.5q0 114 66.5 186.5t173.5 72.5q75 0 133 -38l-20 -110l-60 24l-7 57q-25 11 -48 11q-66 0 -105.5 -46t-39.5 -139z" />
<glyph unicode="d" horiz-adv-x="501" d="M353 1v54q-47 -70 -144 -70q-74 0 -128 57t-54 179q0 118 65.5 190t171.5 72q58 0 89 -23v180l-78 13l-25 64h189v-5v-648l43 -6l19 -57h-148zM243 51q72 0 110 57v303q-40 14 -80 14q-78 0 -117.5 -51t-39.5 -139q0 -87 35 -135.5t92 -48.5z" />
<glyph unicode="e" horiz-adv-x="448" d="M119 217q1 -78 45.5 -124t114.5 -46q30 0 70 14t68 32l-10 -55q-28 -23 -71.5 -41t-86.5 -18q-102 0 -161.5 67.5t-59.5 172.5q0 110 63 184t164 74q85 0 126 -55.5t41 -152.5q0 -27 -3 -52h-300zM335 274q6 59 -16.5 104.5t-78.5 45.5q-52 0 -84 -41t-37 -109h216z" />
<glyph unicode="f" horiz-adv-x="386" d="M282 667q-94 0 -94 -127v-74h128l-15 -57h-113v-332l78 -12l25 -65h-292l25 65l78 12v332h-77l11 51l66 17v53q0 94 48.5 140t124.5 46q47 0 111 -18l-12 -90l-61 -25l-10 82q-8 2 -21 2z" />
<glyph unicode="g" horiz-adv-x="519" d="M344 462h175l-25 -64l-64 -13v-566q-65 -61 -191 -61q-110 0 -195 37l22 126l59 -24l6 -49q52 -28 123 -28q44 0 90 25v201q-49 -71 -144 -71q-73 0 -125 57t-52 179q0 121 56 192t159 71q44 0 72 -27.5t34 -60.5v76zM234 42q70 0 110 57v202q-6 37 -32.5 75.5 t-64.5 38.5q-76 0 -105 -48t-29 -142q0 -87 32.5 -135t88.5 -48z" />
<glyph unicode="h" horiz-adv-x="591" d="M566 64l25 -64h-272l25 64l65 13v214q0 124 -94 124q-35 0 -71.5 -20t-54.5 -43v-275l65 -13l24 -64h-275l25 64l76 13v559l-79 15l-25 65h189v-314q15 32 57.5 55.5t101.5 23.5q69 0 108 -36t39 -140q0 -133 -5 -228z" />
<glyph unicode="i" horiz-adv-x="292" d="M267 65l25 -65h-292l25 65l78 12v320l-53 14l-23 60h162v-394zM146 555q-23 0 -39.5 16.5t-16.5 39.5t16.5 39.5t39.5 16.5t39.5 -16.5t16.5 -39.5t-16.5 -39.5t-39.5 -16.5z" />
<glyph unicode="j" horiz-adv-x="332" d="M255 546q-23 0 -39.5 16.5t-16.5 39.5t16.5 39.5t39.5 16.5t39.5 -16.5t16.5 -39.5t-16.5 -39.5t-39.5 -16.5zM159 402l-23 60h161v-644q-64 -61 -190 -61q-67 0 -107 20l23 134l59 -25l9 -66h7h8h7.5h6.5h2q42 0 90 25v544z" />
<glyph unicode="k" horiz-adv-x="547" d="M418 0l-229 251v-174l78 -13l25 -64h-292l25 64l78 13v562l-78 12l-25 65h189v-447l130 122l-54 9l-25 65h272l-23 -61l-93 -13l-122 -115l178 -199l70 -13l25 -64h-129z" />
<glyph unicode="l" horiz-adv-x="292" d="M189 716v-639l78 -13l25 -64h-291l25 64l78 13v561l-79 13l-25 65h189z" />
<glyph unicode="m" horiz-adv-x="789" d="M764 64l25 -64h-209l24 64l24 4v313q-25 33 -72 33q-67 0 -98 -49v-291l51 -10l25 -64h-215l25 64l29 6v312q-27 32 -72 32q-49 0 -73.5 -21.5t-39.5 -59.5v-257l46 -12l25 -64h-248l25 64l67 12v309l-78 13l-25 65h188v-38q56 52 111 52q49 0 159 -41v-3q50 44 96 44 q39 0 83 -17t76 -40v-346z" />
<glyph unicode="n" horiz-adv-x="535" d="M510 64l25 -64h-215l24 64l29 6v317q-20 27 -72 27q-49 0 -73 -21.5t-40 -59.5v-257l46 -12l26 -64h-249l25 64l67 12v309l-78 13l-25 65h188v-38q58 52 111 52q41 0 87 -17t73 -40v-346z" />
<glyph unicode="o" horiz-adv-x="500" d="M478 234q0 -120 -62 -188t-165 -68q-109 0 -169 65.5t-60 190.5q0 110 65 176t164 66q102 0 164.5 -64t62.5 -178zM251 42q66 0 100 50t34 142q0 79 -37 129t-97 50q-65 0 -100 -47.5t-35 -131.5q0 -89 36.5 -140.5t98.5 -51.5z" />
<glyph unicode="p" horiz-adv-x="545" d="M190 5l-1 5v-188l78 -12l25 -65h-291l25 65l78 12v562h-1l-78 13l-25 65h189v-54q48 73 142 73q75 0 130 -57.5t55 -179.5q0 -118 -67 -190t-173 -72q-54 0 -86 23zM301 416q-70 0 -112 -60v-302q40 -14 81 -14q78 0 117.5 51.5t39.5 140.5q0 86 -35 135t-91 49z" />
<glyph unicode="q" horiz-adv-x="546" d="M279 -190l79 12v231q-43 -71 -144 -71q-34 0 -65 12.5t-58.5 38.5t-43.5 73.5t-16 111.5q0 118 65.5 190.5t170.5 72.5q97 0 176 -43v-616l78 -12l25 -65h-292zM247 48q70 0 111 58v303q-40 16 -82 16q-77 0 -116.5 -52.5t-39.5 -140.5q0 -87 35 -135.5t92 -48.5z" />
<glyph unicode="r" horiz-adv-x="385" d="M284 479q50 6 92 -20l-19 -111l-60 24l1 33h-7q-76 0 -110 -76v-252l78 -12l25 -65h-284l25 65l70 12v312l-67 14l-23 60h176v-72q11 32 35 55.5t56 31.5z" />
<glyph unicode="s" horiz-adv-x="348" d="M237 417q-20 9 -57 9q-81 0 -81 -57q0 -30 23.5 -50.5t57.5 -35t67.5 -31.5t57 -50t23.5 -80q0 -72 -51 -107.5t-126 -35.5q-83 0 -150 40l18 115l48 -17l10 -58q29 -20 82 -20q37 0 59.5 19t22.5 52q0 32 -23.5 53t-57.5 35t-68 30.5t-57.5 49t-23.5 80.5 q0 54 45.5 89.5t117.5 35.5q66 0 138 -28l-9 -79l-52 -13z" />
<glyph unicode="t" horiz-adv-x="375" d="M352 133l13 -134q-37 -20 -97 -20q-127 0 -191 61v366h-77l12 51l65 18l19 113l66 13v-135v-3h129l-14 -57h-115v-203v-137q48 -25 91 -25h31l8 67z" />
<glyph unicode="u" horiz-adv-x="535" d="M535 0h-189v37q-56 -51 -111 -51q-41 0 -87 16.5t-73 39.5v345l-50 10l-25 65h161v-53v-334q21 -27 72 -27q49 0 73 21.5t40 59.5v255l-46 13l-25 65h156v-384v-1l79 -12z" />
<glyph unicode="v" horiz-adv-x="505" d="M530 462l-25 -65l-61 -11l-136 -389h-109l-136 389l-62 11l-25 65h257l-25 -65l-57 -11l102 -320l103 320l-58 11l-25 65h257z" />
<glyph unicode="w" horiz-adv-x="697" d="M722 462l-25 -65l-57 -11l-113 -389h-82l-96 373l-95 -373h-82l-113 389l-58 11l-24 65h251l-25 -65l-57 -11l79 -299l88 386h73l88 -386l78 299l-56 11l-25 65h251z" />
<glyph unicode="x" horiz-adv-x="559" d="M449 77l85 -13l25 -64h-267l24 64l43 10l-80 98l-79 -98l42 -10l25 -64h-268l25 64l85 13l124 151l-125 155l-84 12l-25 65h265l-25 -65l-42 -10l82 -100l83 101l-42 9l-25 65h264l-25 -65l-83 -12l-126 -155z" />
<glyph unicode="y" horiz-adv-x="555" d="M555 462l-25 -65l-61 -12l-221 -639h-176l25 64l99 12l59 179l-164 383l-65 13l-25 65h254l-25 -65l-52 -10l112 -277l90 276l-57 11l-25 65h257z" />
<glyph unicode="z" horiz-adv-x="366" d="M1 61l254 341h-178l-9 -42l-54 -12l-13 117h363v-58l-254 -343h178l9 53l56 19l13 -136h-365v61z" />
<glyph unicode="{" horiz-adv-x="401" d="M243 -146l103 -13l25 -64h-213v422l-128 14l25 70l103 13v404h213l-25 -65l-103 -13v-768z" />
<glyph unicode="|" horiz-adv-x="351" d="M217 775v-861l-74 -5v849z" />
<glyph unicode="}" horiz-adv-x="401" d="M371 214l-128 -14v-423h-213l25 65l103 12v769l-103 12l-25 65h213v-404l103 -12z" />
<glyph unicode="~" horiz-adv-x="365" d="M335 401q-3 -42 -27.5 -73t-69.5 -31q-23 0 -63 21t-58 21q-19 0 -33 -12t-18 -29l-36 21q18 91 100 91q29 0 64.5 -20t55.5 -20q18 0 31 11.5t16 27.5z" />
<glyph unicode="&#xa1;" horiz-adv-x="174" d="M88 597q-23 0 -39.5 16.5t-16.5 39.5t16.5 39t39.5 16t39.5 -16t16.5 -39t-16.5 -39.5t-39.5 -16.5zM57 525l66 5l28 -523l-123 -27z" />
<glyph unicode="&#xa2;" horiz-adv-x="443" d="M268 125q60 0 118 26l-11 -58q-42 -23 -107 -33v-55l-48 -5v58q-90 4 -144 71t-54 168q0 102 54.5 172t143.5 84v62l48 12v-71q72 -1 127 -38l-20 -110l-60 24l-7 57q-21 10 -40 11v-375zM115 315q0 -75 28.5 -121.5t76.5 -61.5v363q-49 -13 -77 -58t-28 -122z" />
<glyph unicode="&#xa3;" horiz-adv-x="582" d="M541 147l8 -147h-518l25 64l78 13q4 9 9 27t12 78t4 127h-100l6 67h89q-6 51 -18 107q-4 19 -4 41q0 78 59 126.5t158 48.5q96 0 180 -34l-10 -91l-59 -24l-11 62q-37 21 -91 21q-60 0 -94.5 -26t-34.5 -69q0 -18 26 -162h193l5 -67h-188q11 -89 -34 -247h232l12 73z" />
<glyph unicode="&#xa4;" d="M629 325q0 -90 -37 -152l57 -57l-38 -47l-56 56q-61 -56 -153 -56q-99 0 -158 54l-54 -54l-38 47l55 55q-34 59 -34 154q0 84 39 143l-60 60l46 39l53 -53q62 53 151 53q92 0 150 -51l51 51l46 -39l-57 -57q37 -61 37 -146zM402 133q66 0 100 50t34 142q0 79 -37 129 t-97 50q-65 0 -100 -47.5t-35 -131.5q0 -89 36.5 -140.5t98.5 -51.5z" />
<glyph unicode="&#xa5;" horiz-adv-x="702" d="M395 679h290l-25 -65l-78 -12l-163 -231h133l5 -60h-159v-62h154l5 -61h-159v-111l78 -12l25 -65h-296l25 65l78 12v111h-159l6 61h153v62h-159l6 60h132l-164 231l-78 12l-24 65h290l-25 -65l-67 -12l134 -189l134 189l-67 12z" />
<glyph unicode="&#xa6;" horiz-adv-x="357" d="M143 -113v382l74 17v-394zM143 799l74 17v-394l-74 -5v382z" />
<glyph unicode="&#xa9;" d="M417 688q147 0 251 -104t104 -251t-104 -251t-251 -104t-251 104t-104 251t104 251t251 104zM417 25q127 0 217.5 90.5t90.5 217.5t-90.5 217.5t-217.5 90.5q-128 0 -218 -90t-90 -218t90 -218t218 -90zM312 338q0 -79 35 -119.5t94 -40.5q47 0 108 28l-5 -33 q-22 -15 -58 -26t-66 -11q-71 0 -115.5 53t-44.5 136q0 94 53 149.5t132 55.5q55 0 99 -21l-12 -72l-32 14l-4 31q-25 11 -54 11q-56 0 -93 -40t-37 -115z" />
<glyph unicode="&#xaa;" horiz-adv-x="448" />
<glyph unicode="&#xab;" horiz-adv-x="610" d="M340 326l238 -234l-50 -39l-263 233v81l263 233l50 -39zM106 326l238 -234l-50 -39l-263 233v81l263 233l50 -39z" />
<glyph unicode="&#xae;" horiz-adv-x="308" d="M154 684q50 0 86 -35.5t36 -86.5q0 -50 -36 -86t-86 -36q-51 0 -86.5 36t-35.5 86q0 51 35.5 86.5t86.5 35.5zM154 456q44 0 75 31t31 75t-31 75t-75 31t-75 -31t-31 -75t31 -75t75 -31zM166 496l5 12l12 3l-20 37h-8h-21v-37l15 -3l5 -12h-58l5 12l15 3v102l-16 2l-5 14 h57q2 0 5 -0.5t4 -0.5q38 -5 38 -39q0 -25 -21 -36l22 -42l13 -3l5 -12h-52zM154 560q27 0 27 29q0 28 -33 28h-14v-57h20z" />
<glyph unicode="&#xaf;" />
<glyph unicode="&#xb0;" horiz-adv-x="303" d="M154 786q50 0 86 -35.5t36 -86.5q0 -50 -36 -86t-86 -36q-51 0 -86.5 36t-35.5 86q0 51 35.5 86.5t86.5 35.5zM154 588q31 0 53.5 22.5t22.5 53.5t-22.5 53.5t-53.5 22.5q-32 0 -54 -22t-22 -54q0 -31 22.5 -53.5t53.5 -22.5z" />
<glyph unicode="&#xb1;" horiz-adv-x="466" d="M434 377h-170v-170h-67v170h-171l6 67h165v160l67 11v-171h165zM424 142l5 -67h-408l6 67h397z" />
<glyph unicode="&#xb4;" />
<glyph unicode="&#xbb;" horiz-adv-x="614" d="M272 327l-238 234l50 39l263 -233v-81l-263 -233l-50 39zM506 327l-238 234l50 39l263 -233v-81l-263 -233l-50 39z" />
<glyph unicode="&#xbc;" horiz-adv-x="621" d="M90 750l-51 -17l-8 45l59 25h52v-334l45 -7l15 -37h-171l15 37l44 7v281zM545 803l46 -25l-521 -778l-39 34zM531 44l45 -7l15 -37h-171l15 37l45 7v65h-152v39l150 234h53l1 -236h50v-37h-50h-1v-65zM480 146v180l-113 -180h113z" />
<glyph unicode="&#xbd;" horiz-adv-x="660" d="M91 750l-52 -17l-8 45l60 25h52v-334l45 -7l14 -37h-171l15 37l45 7v281zM624 83l4 -83h-231v42q13 17 46 53t58 64t46 64t21 64q0 63 -64 63q-27 0 -59 -13l-6 -35l-34 14l-7 49q52 23 109 23q52 0 84.5 -22.5t32.5 -67.5q0 -14 -3.5 -29.5t-12 -33t-15.5 -30.5 t-22 -32.5t-22.5 -29.5t-26 -30t-23.5 -25.5t-25 -25.5l-19 -20h128l6 33zM545 803l46 -25l-520 -778l-40 34z" />
<glyph unicode="&#xbe;" horiz-adv-x="681" d="M264 512q0 -55 -41 -83t-103 -28q-48 0 -86 32l-4 34q35 -25 94 -25q36 0 60 16t24 50q0 44 -26 62t-89 20v36q106 3 106 77q0 32 -18.5 46.5t-44.5 14.5t-58 -9l-6 -32l-34 14l-6 49q42 15 110 15q47 0 79.5 -23.5t32.5 -70.5q0 -35 -20 -60t-57 -34l-14 -3l6 -1 q42 -6 68.5 -31t26.5 -66zM587 44l45 -7l14 -37h-171l15 37l45 7v65h-152v39l151 234h53v-236h50v-37h-50v-65zM535 146v180l-113 -180h113zM600 803l46 -25l-520 -778l-40 34z" />
<glyph unicode="&#xbf;" horiz-adv-x="447" d="M238 587q-23 0 -39.5 16.5t-16.5 39.5t16.5 39t39.5 16q22 0 38.5 -16t16.5 -39t-16 -39.5t-39 -16.5zM240 -21q-99 0 -156.5 48.5t-57.5 126.5q0 45 13.5 79t41.5 58t51.5 38t63.5 31l8 155l67 5l12 -233q-50 -16 -79 -31q-85 -45 -85 -116q0 -43 36 -71.5t95 -28.5 q55 0 91 21l11 62l59 -24l11 -87q-87 -33 -182 -33z" />
<glyph unicode="&#xc0;" d="M251 889l95 26l114 -156l-70 -15zM764 65l25 -65h-308l25 65l81 13l-55 144h-259l-54 -144l81 -13l25 -65h-308l25 65l81 13l237 615h85l238 -615zM295 278h216l-108 315z" />
<glyph unicode="&#xc1;" d="M399 749l-50 42l110 153l86 -34zM764 65l25 -65h-308l25 65l81 13l-55 144h-259l-54 -144l81 -13l25 -65h-308l25 65l81 13l237 615h85l238 -615zM295 278h216l-108 315z" />
<glyph unicode="&#xc2;" horiz-adv-x="810" d="M555 744l-139 145l95 26l114 -156zM251 744l-70 15l114 156l95 -26zM764 65l25 -65h-308l25 65l81 13l-55 144h-259l-54 -144l81 -13l25 -65h-308l25 65l81 13l237 615h85l238 -615zM295 278h216l-108 315z" />
<glyph unicode="&#xc3;" horiz-adv-x="810" d="M531 863l38 -8q-3 -42 -27.5 -73t-69.5 -31q-23 0 -63 21t-58 21q-19 0 -33 -12t-18 -29l-36 21q18 91 100 91q29 0 64.5 -20t55.5 -20q18 0 31 11.5t16 27.5zM764 65l25 -65h-308l25 65l81 13l-55 144h-259l-54 -144l81 -13l25 -65h-308l25 65l81 13l237 615h85 l238 -615zM295 278h216l-108 315z" />
<glyph unicode="&#xc4;" horiz-adv-x="810" d="M362 838q0 -21 -15 -36t-36 -15t-36 15t-15 36q0 22 15 37t36 15t36 -15t15 -37zM545 838q0 -21 -15 -36t-36 -15t-36 15t-15 36q0 22 15 37t36 15t36 -15t15 -37zM764 65l25 -65h-308l25 65l81 13l-55 144h-259l-54 -144l81 -13l25 -65h-308l25 65l81 13l237 615h85 l238 -615zM295 278h216l-108 315z" />
<glyph unicode="&#xc5;" horiz-adv-x="810" d="M764 65l25 -65h-308l25 65l81 13l-55 144h-259l-54 -144l81 -13l25 -65h-308l25 65l81 13l237 615h85l238 -615zM295 278h216l-108 315zM507 850q0 -44 -30 -70t-72 -26q-44 0 -73 25.5t-29 70.5q0 41 31 66t71 25q42 0 72 -24.5t30 -66.5zM405 788q27 0 40 14.5t13 47.5 q0 57 -53 57t-53 -57q0 -62 53 -62z" />
<glyph unicode="&#xc6;" horiz-adv-x="993" d="M467 64l78 13v142h-233l-80 -142l80 -13l25 -64h-304l24 64l80 13l300 532l-62 11l-25 64h600l-8 -144l-60 12l-12 67h-235v-246h201l9 42l56 11v-169l-57 6l-8 46h-201v-247h239l12 73l66 12l8 -147h-518zM343 274h202v345h-7z" />
<glyph unicode="&#xc7;" horiz-adv-x="578" d="M539 47q-72 -49 -182 -64l-9 -24q25 -8 43.5 -26t18.5 -43q0 -41 -48 -72.5t-117 -30.5l-22 38q50 0 77 18.5t27 42.5q0 19 -15.5 34.5t-37.5 20.5l26 39q-125 6 -202 102t-77 242q0 171 97.5 272.5t239.5 101.5q103 0 181 -38l-21 -131l-59 25l-8 57q-43 19 -98 19 q-103 0 -169.5 -72.5t-66.5 -208.5q0 -145 63 -219t171 -74q38 0 96.5 16t101.5 35z" />
<glyph unicode="&#xc8;" horiz-adv-x="540" d="M309 744l-139 145l95 26l114 -156zM105 601l-78 13l-27 70h510l-8 -144l-60 12l-12 67h-235v-246h201l9 42l56 11v-169l-57 6l-8 46h-201v-247h239l12 73l66 12l8 -147h-518l25 64l78 13v524z" />
<glyph unicode="&#xc9;" horiz-adv-x="540" d="M395 910l-146 -161l-50 42l110 153zM105 601l-78 13l-27 70h510l-8 -144l-60 12l-12 67h-235v-246h201l9 42l56 11v-169l-57 6l-8 46h-201v-247h239l12 73l66 12l8 -147h-518l25 64l78 13v524z" />
<glyph unicode="&#xca;" horiz-adv-x="540" d="M411 744l-139 145l95 26l114 -156zM246 889l-139 -145l-70 15l114 156zM105 601l-78 13l-27 70h510l-8 -144l-60 12l-12 67h-235v-246h201l9 42l56 11v-169l-57 6l-8 46h-201v-247h239l12 73l66 12l8 -147h-518l25 64l78 13v524z" />
<glyph unicode="&#xcb;" horiz-adv-x="540" d="M226 838q0 -21 -15 -36t-36 -15t-36 15t-15 36q0 22 15 37t36 15t36 -15t15 -37zM409 838q0 -21 -15 -36t-36 -15t-36 15t-15 36q0 22 15 37t36 15t36 -15t15 -37zM105 601l-78 13l-27 70h510l-8 -144l-60 12l-12 67h-235v-246h201l9 42l56 11v-169l-57 6l-8 46h-201 v-247h239l12 73l66 12l8 -147h-518l25 64l78 13v524z" />
<glyph unicode="&#xcc;" horiz-adv-x="332" d="M186 744l-139 145l95 26l114 -156zM212 77l78 -13l25 -64h-296l25 64l78 13v524l-78 12l-25 65h296l-25 -65l-78 -12v-524z" />
<glyph unicode="&#xcd;" horiz-adv-x="332" d="M287 910l-146 -161l-50 42l110 153zM212 77l78 -13l25 -64h-296l25 64l78 13v524l-78 12l-25 65h296l-25 -65l-78 -12v-524z" />
<glyph unicode="&#xce;" horiz-adv-x="332" d="M319 744l-139 145l95 26l114 -156zM154 889l-139 -145l-70 15l114 156zM212 77l78 -13l25 -64h-296l25 64l78 13v524l-78 12l-25 65h296l-25 -65l-78 -12v-524z" />
<glyph unicode="&#xcf;" horiz-adv-x="332" d="M124 838q0 -21 -15 -36t-36 -15t-36 15t-15 36q0 22 15 37t36 15t36 -15t15 -37zM307 838q0 -21 -15 -36t-36 -15t-36 15t-15 36q0 22 15 37t36 15t36 -15t15 -37zM212 77l78 -13l25 -64h-296l25 64l78 13v524l-78 12l-25 65h296l-25 -65l-78 -12v-524z" />
<glyph unicode="&#xd0;" horiz-adv-x="685" d="M313 689q149 0 246 -88t97 -245q0 -177 -90 -266.5t-224 -89.5h-323l27 70l83 13v523l-83 13l-27 70h294zM314 62q121 1 184 70t63 219q0 131 -75 204.5t-190 73.5h-77v-567h95zM398 372l7 -67h-386l6 67h373z" />
<glyph unicode="&#xd1;" horiz-adv-x="756" d="M489 863l38 -8q-3 -42 -27.5 -73t-69.5 -31q-23 0 -63 21t-58 21q-19 0 -33 -12t-18 -29l-36 21q18 91 100 91q29 0 64.5 -20t55.5 -20q18 0 31 11.5t16 27.5zM439 678h295l-25 -64l-78 -13v-609h-112l-309 633v-548l78 -13l25 -64h-296l25 64l78 13v524l-78 13l-25 64 h250l274 -576v499l-78 13z" />
<glyph unicode="&#xd2;" horiz-adv-x="723" d="M390 744l-139 145l95 26l114 -156zM692 341q0 -149 -96 -254t-235 -105v0v0q-140 0 -236 105t-96 254t96 254t236 105q139 0 235 -105t96 -254zM361 60q110 0 164.5 76t54.5 205q0 128 -54.5 204.5t-164.5 76.5t-165 -76.5t-55 -204.5t55 -204.5t165 -76.5v0v0z" />
<glyph unicode="&#xd3;" horiz-adv-x="723" d="M519 910l-146 -161l-50 42l110 153zM692 341q0 -149 -96 -254t-235 -105v0v0q-140 0 -236 105t-96 254t96 254t236 105q139 0 235 -105t96 -254zM361 60q110 0 164.5 76t54.5 205q0 128 -54.5 204.5t-164.5 76.5t-165 -76.5t-55 -204.5t55 -204.5t165 -76.5v0v0z" />
<glyph unicode="&#xd4;" horiz-adv-x="723" d="M519 744l-139 145l95 26l114 -156zM354 889l-139 -145l-70 15l114 156zM692 341q0 -149 -96 -254t-235 -105v0v0q-140 0 -236 105t-96 254t96 254t236 105q139 0 235 -105t96 -254zM361 60q110 0 164.5 76t54.5 205q0 128 -54.5 204.5t-164.5 76.5t-165 -76.5t-55 -204.5 t55 -204.5t165 -76.5v0v0z" />
<glyph unicode="&#xd5;" horiz-adv-x="723" d="M480 863l38 -8q-3 -42 -27.5 -73t-69.5 -31q-23 0 -63 21t-58 21q-19 0 -33 -12t-18 -29l-36 21q18 91 100 91q29 0 64.5 -20t55.5 -20q18 0 31 11.5t16 27.5zM692 341q0 -149 -96 -254t-235 -105v0v0q-140 0 -236 105t-96 254t96 254t236 105q139 0 235 -105t96 -254z M361 60q110 0 164.5 76t54.5 205q0 128 -54.5 204.5t-164.5 76.5t-165 -76.5t-55 -204.5t55 -204.5t165 -76.5v0v0z" />
<glyph unicode="&#xd6;" horiz-adv-x="723" d="M324 838q0 -21 -15 -36t-36 -15t-36 15t-15 36q0 22 15 37t36 15t36 -15t15 -37zM507 838q0 -21 -15 -36t-36 -15t-36 15t-15 36q0 22 15 37t36 15t36 -15t15 -37zM692 341q0 -149 -96 -254t-235 -105v0v0q-140 0 -236 105t-96 254t96 254t236 105q139 0 235 -105 t96 -254zM361 60q110 0 164.5 76t54.5 205q0 128 -54.5 204.5t-164.5 76.5t-165 -76.5t-55 -204.5t55 -204.5t165 -76.5v0v0z" />
<glyph unicode="&#xd7;" horiz-adv-x="400" d="M368 426l-121 -120l117 -117l-44 -51l-120 120l-121 -120l-43 51l116 117l-120 120l51 43l117 -116l117 117z" />
<glyph unicode="&#xd8;" horiz-adv-x="768" d="M738 646l-90 -89q68 -96 68 -218q0 -149 -96 -254t-235 -105q-129 0 -223 91l-86 -87l-46 55l87 86q-64 94 -64 214q0 149 96 254t236 105q124 0 217 -87l82 82zM165 339q0 -82 22 -144l356 356q-58 69 -158 69q-110 0 -165 -76.5t-55 -204.5zM604 339q0 86 -25 149 l-357 -358q58 -72 163 -72q110 0 164.5 76t54.5 205z" />
<glyph unicode="&#xd9;" horiz-adv-x="765" d="M390 744l-139 145l95 26l114 -156zM452 677h296l-25 -65l-78 -12v-358q0 -131 -62 -197t-198 -66h-2h-1q-136 0 -198 66t-62 197v358l-78 12l-25 65h296l-25 -65l-78 -12v-350q0 -207 171 -208q172 1 172 208v350l-78 12z" />
<glyph unicode="&#xda;" horiz-adv-x="765" d="M523 910l-146 -161l-50 42l110 153zM452 677h296l-25 -65l-78 -12v-358q0 -131 -62 -197t-198 -66h-2h-1q-136 0 -198 66t-62 197v358l-78 12l-25 65h296l-25 -65l-78 -12v-350q0 -207 171 -208q172 1 172 208v350l-78 12z" />
<glyph unicode="&#xdb;" horiz-adv-x="765" d="M555 744l-139 145l95 26l114 -156zM352 889l-139 -145l-70 15l114 156zM452 677h296l-25 -65l-78 -12v-358q0 -131 -62 -197t-198 -66h-2h-1q-136 0 -198 66t-62 197v358l-78 12l-25 65h296l-25 -65l-78 -12v-350q0 -207 171 -208q172 1 172 208v350l-78 12z" />
<glyph unicode="&#xdc;" horiz-adv-x="765" d="M341 838q0 -21 -15 -36t-36 -15t-36 15t-15 36q0 22 15 37t36 15t36 -15t15 -37zM524 838q0 -21 -15 -36t-36 -15t-36 15t-15 36q0 22 15 37t36 15t36 -15t15 -37zM452 677h296l-25 -65l-78 -12v-358q0 -131 -62 -197t-198 -66h-2h-1q-136 0 -198 66t-62 197v358l-78 12 l-25 65h296l-25 -65l-78 -12v-350q0 -207 171 -208q172 1 172 208v350l-78 12z" />
<glyph unicode="&#xdd;" horiz-adv-x="702" d="M506 910l-146 -161l-50 42l110 153zM394 679h290l-25 -65l-78 -12l-184 -260v-265l78 -12l25 -65h-296l25 65l78 12v265l-185 260l-78 12l-24 65h290l-25 -65l-67 -12l134 -189l134 189l-67 12z" />
<glyph unicode="&#xde;" horiz-adv-x="561" d="M355 555q89 -12 142 -63.5t53 -135.5q0 -106 -67.5 -161t-162.5 -55h-108v-63l78 -13l25 -64h-296l25 64l78 13v534l-78 12l-25 65h296l-25 -65l-78 -12v-52h94q25 0 49 -4zM316 201q141 0 141 150q0 70 -47.5 108t-126.5 38h-71v-296h104z" />
<glyph unicode="&#xdf;" horiz-adv-x="642" d="M604 130q1 -2 1 -8q0 -72 -51 -107.5t-126 -35.5q-83 0 -150 40v1l17 112l49 -15l9 -57l1 -1q21 -15 52 -18q9 -2 25 -2h5q36 0 58.5 18.5t23.5 50.5v2q0 29 -16.5 52t-42 40t-51 35.5t-47.5 47t-29 65.5q-4 22 -4 54q0 31 13 59q17 35 58 68q27 25 33 33q14 19 14 41 t-10.5 37t-30 22t-35.5 10t-39 4q-25 0 -42 -4q-96 -26 -99 -187v-487h-189l25 65l77 12v332h-76l11 51l66 17v90q0 78 59 126.5t158 48.5q18 0 56 -4q18 -2 27 -4q62 -12 95 -45q31 -31 31 -76q0 -30 -13 -54q-15 -27 -42 -51q-3 -3 -7.5 -7t-6.5 -6q-36 -32 -43.5 -72.5 t18.5 -82.5q10 -16 27 -29.5t40 -27.5t33 -22q65 -51 68 -131z" />
<glyph unicode="&#xe0;" horiz-adv-x="448" d="M228 530l-139 145l95 26l114 -156zM428 45l20 -45h-169v26q-38 -38 -103 -38q-29 0 -54 6.5t-50 23t-39.5 51.5t-14.5 84q0 84 48.5 125.5t109.5 41.5q67 0 103 -33v126q-31 12 -62 12q-62 0 -103 -19l-2 -22l-49 -17l-17 87q70 26 159 26q106 0 159 -42v-385zM183 35 q27 0 54 12t42 32v170q-23 20 -76 20q-46 0 -72.5 -30.5t-26.5 -84.5q0 -71 21.5 -95t57.5 -24z" />
<glyph unicode="&#xe1;" horiz-adv-x="448" d="M319 696l-146 -161l-50 42l110 153zM428 45l20 -45h-169v26q-38 -38 -103 -38q-29 0 -54 6.5t-50 23t-39.5 51.5t-14.5 84q0 84 48.5 125.5t109.5 41.5q67 0 103 -33v126q-31 12 -62 12q-62 0 -103 -19l-2 -22l-49 -17l-17 87q70 26 159 26q106 0 159 -42v-385zM183 35 q27 0 54 12t42 32v170q-23 20 -76 20q-46 0 -72.5 -30.5t-26.5 -84.5q0 -71 21.5 -95t57.5 -24z" />
<glyph unicode="&#xe2;" horiz-adv-x="448" d="M356 522l-139 145l95 26l114 -156zM191 667l-139 -145l-70 15l114 156zM428 45l20 -45h-169v26q-38 -38 -103 -38q-29 0 -54 6.5t-50 23t-39.5 51.5t-14.5 84q0 84 48.5 125.5t109.5 41.5q67 0 103 -33v126q-31 12 -62 12q-62 0 -103 -19l-2 -22l-49 -17l-17 87 q70 26 159 26q106 0 159 -42v-385zM183 35q27 0 54 12t42 32v170q-23 20 -76 20q-46 0 -72.5 -30.5t-26.5 -84.5q0 -71 21.5 -95t57.5 -24z" />
<glyph unicode="&#xe3;" horiz-adv-x="448" d="M322 656l38 -8q-3 -42 -27.5 -73t-69.5 -31q-23 0 -63 21t-58 21q-19 0 -33 -12t-18 -29l-36 21q17 91 100 91q29 0 64.5 -20t55.5 -20q18 0 31 11.5t16 27.5zM428 45l20 -45h-169v26q-38 -38 -103 -38q-29 0 -54 6.5t-50 23t-39.5 51.5t-14.5 84q0 84 48.5 125.5 t109.5 41.5q67 0 103 -33v126q-31 12 -62 12q-62 0 -103 -19l-2 -22l-49 -17l-17 87q70 26 159 26q106 0 159 -42v-385zM183 35q27 0 54 12t42 32v170q-23 20 -76 20q-46 0 -72.5 -30.5t-26.5 -84.5q0 -71 21.5 -95t57.5 -24z" />
<glyph unicode="&#xe4;" horiz-adv-x="448" d="M173 586q0 -21 -15 -36t-36 -15t-36 15t-15 36q0 22 15 37t36 15t36 -15t15 -37zM356 586q0 -21 -15 -36t-36 -15t-36 15t-15 36q0 22 15 37t36 15t36 -15t15 -37zM428 45l20 -45h-169v26q-38 -38 -103 -38q-29 0 -54 6.5t-50 23t-39.5 51.5t-14.5 84q0 84 48.5 125.5 t109.5 41.5q67 0 103 -33v126q-31 12 -62 12q-62 0 -103 -19l-2 -22l-49 -17l-17 87q70 26 159 26q106 0 159 -42v-385zM183 35q27 0 54 12t42 32v170q-23 20 -76 20q-46 0 -72.5 -30.5t-26.5 -84.5q0 -71 21.5 -95t57.5 -24z" />
<glyph unicode="&#xe5;" horiz-adv-x="448" d="M428 45l20 -45h-169v26q-38 -38 -103 -38q-29 0 -54 6.5t-50 23t-39.5 51.5t-14.5 84q0 84 48.5 125.5t109.5 41.5q67 0 103 -33v126q-31 12 -62 12q-62 0 -103 -19l-2 -22l-49 -17l-17 87q70 26 159 26q106 0 159 -42v-385zM183 35q27 0 54 12t42 32v170q-23 20 -76 20 q-46 0 -72.5 -30.5t-26.5 -84.5q0 -71 21.5 -95t57.5 -24zM326 635q0 -44 -30 -70t-72 -26q-44 0 -73 25.5t-29 70.5q0 41 31 66t71 25q42 0 72 -24.5t30 -66.5zM224 573q27 0 40 14.5t13 47.5q0 57 -53 57t-53 -57q0 -62 53 -62z" />
<glyph unicode="&#xe6;" horiz-adv-x="721" d="M690 277q0 -27 -3 -52h-300q1 -78 45.5 -124t114.5 -46q30 0 70 14t68 32l-10 -55q-28 -23 -71.5 -41t-86.5 -18q-100 0 -161 66q-81 -66 -167 -66q-29 0 -54 6.5t-50 23t-39.5 51.5t-14.5 84q0 84 48.5 125.5t109.5 41.5q67 0 103 -33v126q-31 12 -62 12q-62 0 -103 -19 l-2 -22l-49 -17l-17 87q70 26 159 26q108 0 164 -45q59 51 141 51q85 0 126 -55.5t41 -152.5zM292 78v170q-23 20 -76 20q-46 0 -72.5 -30.5t-26.5 -84.5q0 -71 21.5 -95t57.5 -24q27 0 54 12t42 32zM603 282q6 59 -16.5 104.5t-78.5 45.5q-52 0 -84 -41t-37 -109h216z" />
<glyph unicode="&#xe7;" horiz-adv-x="419" d="M119 244q0 -93 42 -141.5t111 -48.5q60 0 118 26l-11 -58q-39 -21 -94 -30l-14 -33q25 -8 43.5 -26t18.5 -43q0 -41 -48 -72.5t-117 -30.5l-22 38q50 0 77 18.5t27 42.5q0 19 -15.5 34.5t-37.5 20.5l32 46q-92 2 -147.5 69t-55.5 170q0 114 66.5 186.5t173.5 72.5 q75 0 133 -38l-20 -110l-60 24l-7 57q-25 11 -48 11q-66 0 -105.5 -46t-39.5 -139z" />
<glyph unicode="&#xe8;" horiz-adv-x="455" d="M262 530l-139 145l95 26l114 -156zM119 217q1 -78 45.5 -124t114.5 -46q30 0 70 14t68 32l-10 -55q-28 -23 -71.5 -41t-86.5 -18q-102 0 -161.5 67.5t-59.5 172.5q0 110 63 184t164 74q85 0 126 -55.5t41 -152.5q0 -27 -3 -52h-300zM335 274q6 59 -16.5 104.5t-78.5 45.5 q-52 0 -84 -41t-37 -109h216z" />
<glyph unicode="&#xe9;" horiz-adv-x="460" d="M379 681l-146 -161l-50 42l110 153zM119 217q1 -78 45.5 -124t114.5 -46q30 0 70 14t68 32l-10 -55q-28 -23 -71.5 -41t-86.5 -18q-102 0 -161.5 67.5t-59.5 172.5q0 110 63 184t164 74q85 0 126 -55.5t41 -152.5q0 -27 -3 -52h-300zM335 274q6 59 -16.5 104.5 t-78.5 45.5q-52 0 -84 -41t-37 -109h216z" />
<glyph unicode="&#xea;" horiz-adv-x="453" d="M272 700l103 -126l-39 -50l-105 102l-105 -102l-39 50l104 126h81zM119 217h300q3 25 3 52q0 97 -41 152.5t-126 55.5q-101 0 -164 -74t-63 -184q0 -105 59.5 -172.5t161.5 -67.5q43 0 86.5 18t71.5 41l10 55q-28 -18 -68 -32t-70 -14q-70 0 -114.5 46t-45.5 124z M335 274h-216q5 68 37 109t84 41q56 0 78.5 -45.5t16.5 -104.5z" />
<glyph unicode="&#xeb;" horiz-adv-x="448" d="M188 586q0 -21 -15 -36t-36 -15t-36 15t-15 36q0 22 15 37t36 15t36 -15t15 -37zM371 586q0 -21 -15 -36t-36 -15t-36 15t-15 36q0 22 15 37t36 15t36 -15t15 -37zM119 217q1 -78 45.5 -124t114.5 -46q30 0 70 14t68 32l-10 -55q-28 -23 -71.5 -41t-86.5 -18 q-102 0 -161.5 67.5t-59.5 172.5q0 110 63 184t164 74q85 0 126 -55.5t41 -152.5q0 -27 -3 -52h-300zM335 274q6 59 -16.5 104.5t-78.5 45.5q-52 0 -84 -41t-37 -109h216z" />
<glyph unicode="&#xec;" horiz-adv-x="313" d="M140 558l-139 145l95 26l114 -156zM288 65l25 -65h-292l25 65l78 12v320l-53 14l-23 60h162v-394z" />
<glyph unicode="&#xed;" horiz-adv-x="293" d="M268 65l25 -65h-292l25 65l78 12v320l-53 14l-23 60h162v-394zM113 535l-50 42l110 153l86 -34z" />
<glyph unicode="&#xee;" horiz-adv-x="321" d="M185 700l103 -126l-39 -50l-105 102l-105 -102l-39 50l104 126h81zM296 65l25 -65h-292l25 65l78 12v320l-53 14l-23 60h162v-394z" />
<glyph unicode="&#xef;" horiz-adv-x="349" d="M307 65l25 -65h-292l25 65l78 12v320l-53 14l-23 60h162v-394zM118 586q0 -21 -15 -36t-36 -15t-36 15t-15 36q0 22 15 37t36 15t36 -15t15 -37zM301 586q0 -21 -15 -36t-36 -15t-36 15t-15 36q0 22 15 37t36 15t36 -15t15 -37z" />
<glyph unicode="&#xf0;" horiz-adv-x="563" d="M530 559l-100 -31q45 -94 45 -250q0 -300 -231 -300q-97 0 -154.5 61t-57.5 167q0 92 51 147t147 55q54 0 91.5 -21t53.5 -53l7 -16q-6 119 -35 185l-134 -40l-12 60l111 33q-44 47 -119 47l-43 66q21 3 41 3q134 0 206 -90l111 34zM381 265v16q-62 64 -130 64 q-63 0 -95.5 -37.5t-32.5 -106.5q0 -74 31.5 -118.5t86.5 -44.5q73 0 106.5 56t33.5 171z" />
<glyph unicode="&#xf1;" horiz-adv-x="535" d="M365 656l38 -8q-3 -42 -27.5 -73t-69.5 -31q-23 0 -63 21t-58 21q-19 0 -33 -12t-18 -29l-36 21q18 91 100 91q29 0 64.5 -20t55.5 -20q18 0 31 11.5t16 27.5zM510 64l25 -64h-215l24 64l29 6v317q-20 27 -72 27q-49 0 -73 -21.5t-40 -59.5v-257l46 -12l26 -64h-249 l25 64l67 12v309l-78 13l-25 65h188v-38q58 52 111 52q41 0 87 -17t73 -40v-346z" />
<glyph unicode="&#xf2;" horiz-adv-x="504" d="M274 528l-139 145l95 26l114 -156zM478 234q0 -120 -62 -188t-165 -68q-109 0 -169 65.5t-60 190.5q0 110 65 176t164 66q102 0 164.5 -64t62.5 -178zM251 42q66 0 100 50t34 142q0 79 -37 129t-97 50q-65 0 -100 -47.5t-35 -131.5q0 -89 36.5 -140.5t98.5 -51.5z" />
<glyph unicode="&#xf3;" horiz-adv-x="502" d="M371 681l-146 -161l-50 42l110 153zM478 234q0 -120 -62 -188t-165 -68q-109 0 -169 65.5t-60 190.5q0 110 65 176t164 66q102 0 164.5 -64t62.5 -178zM251 42q66 0 100 50t34 142q0 79 -37 129t-97 50q-65 0 -100 -47.5t-35 -131.5q0 -89 36.5 -140.5t98.5 -51.5z" />
<glyph unicode="&#xf4;" horiz-adv-x="501" d="M290 700l103 -126l-39 -50l-105 102l-105 -102l-39 50l104 126h81zM478 234q0 114 -62.5 178t-164.5 64q-99 0 -164 -66t-65 -176q0 -125 60 -190.5t169 -65.5q103 0 165 68t62 188zM251 42q-62 0 -98.5 51.5t-36.5 140.5q0 84 35 131.5t100 47.5q60 0 97 -50t37 -129 q0 -92 -34 -142t-100 -50z" />
<glyph unicode="&#xf5;" horiz-adv-x="500" d="M365 656l38 -8q-3 -42 -27.5 -73t-69.5 -31q-23 0 -63 21t-58 21q-19 0 -33 -12t-18 -29l-36 21q18 91 100 91q29 0 64.5 -20t55.5 -20q18 0 31 11.5t16 27.5zM478 234q0 -120 -62 -188t-165 -68q-109 0 -169 65.5t-60 190.5q0 110 65 176t164 66q102 0 164.5 -64 t62.5 -178zM251 42q66 0 100 50t34 142q0 79 -37 129t-97 50q-65 0 -100 -47.5t-35 -131.5q0 -89 36.5 -140.5t98.5 -51.5z" />
<glyph unicode="&#xf6;" horiz-adv-x="502" d="M202 586q0 -21 -15 -36t-36 -15t-36 15t-15 36q0 22 15 37t36 15t36 -15t15 -37zM385 586q0 -21 -15 -36t-36 -15t-36 15t-15 36q0 22 15 37t36 15t36 -15t15 -37zM478 234q0 -120 -62 -188t-165 -68q-109 0 -169 65.5t-60 190.5q0 110 65 176t164 66q102 0 164.5 -64 t62.5 -178zM251 42q66 0 100 50t34 142q0 79 -37 129t-97 50q-65 0 -100 -47.5t-35 -131.5q0 -89 36.5 -140.5t98.5 -51.5z" />
<glyph unicode="&#xf7;" horiz-adv-x="456" d="M284 462q0 -23 -16.5 -39.5t-39.5 -16.5t-39.5 16.5t-16.5 39.5t16.5 39.5t39.5 16.5t39.5 -16.5t16.5 -39.5zM284 140q0 -23 -16.5 -39.5t-39.5 -16.5t-39.5 16.5t-16.5 39.5t16.5 39.5t39.5 16.5t39.5 -16.5t16.5 -39.5zM30 335h397l5 -67h-408z" />
<glyph unicode="&#xf8;" horiz-adv-x="560" d="M528 437l-57 -58q37 -61 37 -145q0 -120 -62 -188t-165 -68q-99 0 -158 54l-54 -54l-38 46l55 55q-34 62 -34 155q0 110 65 176t164 66q91 0 151 -51l51 51zM146 234q0 -49 10 -85l218 218q-36 46 -93 46q-65 0 -100 -47.5t-35 -131.5zM415 234q0 44 -12 78l-220 -220 q36 -50 98 -50q66 0 100 50t34 142z" />
<glyph unicode="&#xf9;" horiz-adv-x="534" d="M264 558l-139 145l95 26l114 -156zM535 0h-189v37q-56 -51 -111 -51q-41 0 -87 16.5t-73 39.5v345l-50 10l-25 65h161v-53v-334q21 -27 72 -27q49 0 73 21.5t40 59.5v255l-46 13l-25 65h156v-384v-1l79 -12z" />
<glyph unicode="&#xfa;" horiz-adv-x="534" d="M336 681l-146 -161l-50 42l110 153zM535 0h-189v37q-56 -51 -111 -51q-41 0 -87 16.5t-73 39.5v345l-50 10l-25 65h161v-53v-334q21 -27 72 -27q49 0 73 21.5t40 59.5v255l-46 13l-25 65h156v-384v-1l79 -12z" />
<glyph unicode="&#xfb;" horiz-adv-x="534" d="M276 700l103 -126l-39 -50l-105 102l-105 -102l-39 50l104 126h81zM535 0h-189v37q-56 -51 -111 -51q-41 0 -87 16.5t-73 39.5v345l-50 10l-25 65h161v-53v-334q21 -27 72 -27q49 0 73 21.5t40 59.5v255l-46 13l-25 65h156v-384v-1l79 -12z" />
<glyph unicode="&#xfc;" horiz-adv-x="535" d="M185 586q0 -21 -15 -36t-36 -15t-36 15t-15 36q0 22 15 37t36 15t36 -15t15 -37zM368 586q0 -21 -15 -36t-36 -15t-36 15t-15 36q0 22 15 37t36 15t36 -15t15 -37zM535 0h-189v37q-56 -51 -111 -51q-41 0 -87 16.5t-73 39.5v345l-50 10l-25 65h161v-53v-334 q21 -27 72 -27q49 0 73 21.5t40 59.5v255l-46 13l-25 65h156v-384v-1l79 -12z" />
<glyph unicode="&#xfd;" horiz-adv-x="554" d="M418 681l-146 -161l-50 42l110 153zM555 462l-25 -65l-61 -12l-221 -639h-176l25 64l99 12l59 179l-164 383l-65 13l-25 65h254l-25 -65l-52 -10l112 -277l90 276l-57 11l-25 65h257z" />
<glyph unicode="&#xfe;" horiz-adv-x="535" d="M190 5l-1 5v-188l78 -12l25 -65h-291l25 65l78 12v816h-1l-78 13l-25 65h189v-308q48 73 142 73q75 0 130 -57.5t55 -179.5q0 -118 -67 -190t-173 -72q-54 0 -86 23zM301 416q-70 0 -112 -60v-302q40 -14 81 -14q78 0 117.5 51.5t39.5 140.5q0 86 -35 135t-91 49z" />
<glyph unicode="&#xff;" horiz-adv-x="555" d="M244 586q0 -21 -15 -36t-36 -15t-36 15t-15 36q0 22 15 37t36 15t36 -15t15 -37zM427 586q0 -21 -15 -36t-36 -15t-36 15t-15 36q0 22 15 37t36 15t36 -15t15 -37zM555 462l-25 -65l-61 -12l-221 -639h-176l25 64l99 12l59 179l-164 383l-65 13l-25 65h254l-25 -65 l-52 -10l112 -277l90 276l-57 11l-25 65h257z" />
<glyph unicode="&#x141;" horiz-adv-x="537" d="M44 65l78 12v176l-75 -43l-28 61l103 59v271l-78 13l-25 64h296l-25 -64l-78 -13v-219l151 87l38 -55l-189 -109v-241h228q1 6 3.5 21.5t4.5 28.5l3 12l60 12l8 -138h-500z" />
<glyph unicode="&#x142;" horiz-adv-x="340" d="M213 77l78 -13l25 -64h-291l25 64l78 13v229l-75 -43l-29 61l104 60v254l-1 1l-78 12l-25 65h189v-283l68 39l38 -56l-106 -61v-278z" />
<glyph unicode="&#x152;" horiz-adv-x="934" d="M894 147l8 -147h-435q-45 -17 -102 -17q-140 0 -236 105t-96 254t96 254t236 105q53 0 102 -17h425l-8 -144l-60 12l-12 67h-235v-246h201l9 42l56 11v-169l-57 6l-8 46h-201v-245v-2h239l12 73zM487 95v493q-51 35 -122 35q-110 0 -165 -76.5t-55 -204.5t55 -204.5 t165 -76.5q73 0 122 34z" />
<glyph unicode="&#x153;" horiz-adv-x="824" d="M793 277q0 -27 -3 -52h-300q1 -78 45.5 -124t114.5 -46q30 0 70 14t68 32l-10 -55q-28 -23 -71.5 -41t-86.5 -18q-118 0 -178 89q-61 -89 -181 -89q-109 0 -169 65.5t-60 190.5q0 110 65 176t164 66q127 0 187 -92q65 92 178 92q85 0 126 -55.5t41 -152.5zM261 51 q66 0 100 50t34 142q0 79 -37 129t-97 50q-65 0 -100 -47.5t-35 -131.5q0 -89 36.5 -140.5t98.5 -51.5zM706 282q6 59 -16.5 104.5t-78.5 45.5q-52 0 -84 -41t-37 -109h216z" />
<glyph unicode="&#x160;" horiz-adv-x="488" d="M134 539q0 -34 18 -60.5t46.5 -43.5t63 -32.5t69 -33.5t63 -40.5t46.5 -59t18 -84.5q0 -55 -20.5 -95.5t-56 -63.5t-78 -33.5t-92.5 -10.5q-106 0 -195 37l22 131l59 -24l6 -49q53 -27 122 -27q137 0 137 119q0 49 -33.5 81.5t-81 52.5t-95.5 42.5t-81.5 67.5t-33.5 112 q0 78 59 126.5t158 48.5q96 0 180 -34l-10 -91l-59 -24l-11 62q-37 21 -91 21q-60 0 -94.5 -26t-34.5 -69zM204 738l-104 126l39 50l105 -102l105 102l39 -50l-103 -126h-81z" />
<glyph unicode="&#x161;" horiz-adv-x="348" d="M237 417l14 -54l52 13l9 79q-72 28 -138 28q-72 0 -117.5 -35.5t-45.5 -89.5q0 -48 23.5 -80.5t57.5 -49t68 -30.5t57.5 -35t23.5 -53q0 -33 -22.5 -52t-59.5 -19q-53 0 -82 20l-10 58l-48 17l-18 -115q67 -40 150 -40q75 0 126 35.5t51 107.5q0 47 -23.5 80t-57 50 t-67.5 31.5t-57.5 35t-23.5 50.5q0 57 81 57q38 0 57 -9zM134 523l-104 126l39 50l105 -102l105 102l39 -50l-103 -126h-81z" />
<glyph unicode="&#x178;" horiz-adv-x="702" d="M308 838q0 -21 -15 -36t-36 -15t-36 15t-15 36q0 22 15 37t36 15t36 -15t15 -37zM491 838q0 -21 -15 -36t-36 -15t-36 15t-15 36q0 22 15 37t36 15t36 -15t15 -37zM394 679h290l-25 -65l-78 -12l-184 -260v-265l78 -12l25 -65h-296l25 65l78 12v265l-185 260l-78 12 l-24 65h290l-25 -65l-67 -12l134 -189l134 189l-67 12z" />
<glyph unicode="&#x17d;" horiz-adv-x="536" d="M21 679h489v-65h-1l-395 -549h316q11 65 12 66l60 13l8 -144h-489v65l395 548l-315 1q-11 -60 -12 -61l-60 -12zM228 738l-104 126l39 50l105 -102l105 102l39 -50l-103 -126h-81z" />
<glyph unicode="&#x17e;" horiz-adv-x="366" d="M1 61v-61h365l-13 136l-56 -19l-9 -53h-178l254 343v58h-363l13 -117l54 12l9 42h178zM143 523l-104 126l39 50l105 -102l105 102l39 -50l-103 -126h-81z" />
<glyph unicode="&#x2c6;" />
<glyph unicode="&#x2c7;" horiz-adv-x="340" d="M132 523l-104 126l39 50l105 -102l105 102l39 -50l-103 -126h-81z" />
<glyph unicode="&#x2d8;" horiz-adv-x="337" d="M167 611q67 0 89 89l57 -15q-8 -64 -45.5 -102t-100.5 -38q-121 0 -142 132l58 23q18 -89 84 -89z" />
<glyph unicode="&#x2d9;" />
<glyph unicode="&#x2da;" horiz-adv-x="266" d="M235 635q0 -44 -30 -70t-72 -26q-44 0 -73 25.5t-29 70.5q0 41 31 66t71 25q42 0 72 -24.5t30 -66.5zM133 573q27 0 40 14.5t13 47.5q0 57 -53 57t-53 -57q0 -62 53 -62z" />
<glyph unicode="&#x2db;" horiz-adv-x="231" d="M114 1l35 20q26 11 20 -8q0 -2 -2 -6l-20 -49q25 -8 43.5 -26t18.5 -43q0 -41 -48 -72.5t-117 -30.5l-22 38q50 0 77 18.5t27 42.5q0 19 -15.5 34.5t-37.5 20.5z" />
<glyph unicode="&#x2dc;" d="M489 306l38 -8q-3 -42 -27.5 -73t-69.5 -31q-23 0 -63 21t-58 21q-19 0 -33 -12t-18 -29l-36 21q18 91 100 91q29 0 64.5 -20t55.5 -20q18 0 31 11.5t16 27.5z" />
<glyph unicode="&#x2dd;" />
<glyph unicode="&#x2013;" horiz-adv-x="589" d="M552 300l5 -67h-526l6 67h515z" />
<glyph unicode="&#x2014;" d="M804 300l5 -67h-778l6 67h767z" />
<glyph unicode="&#x2018;" horiz-adv-x="195" d="M129 686l66 14l-69 -160l37 -25l-35 -50l-104 31z" />
<glyph unicode="&#x2019;" horiz-adv-x="171" d="M67 695l104 -32l-105 -190l-66 -13l69 159l-38 26z" />
<glyph unicode="&#x201a;" />
<glyph unicode="&#x201c;" horiz-adv-x="376" d="M376 700l-69 -160l37 -25l-35 -50l-105 31l106 190zM131 686l66 14l-69 -160l37 -25l-35 -50l-104 31z" />
<glyph unicode="&#x201d;" horiz-adv-x="377" d="M32 650l35 50l105 -32l-105 -190l-67 -13l69 159zM246 700l105 -32l-106 -190l-66 -13l69 159l-37 26z" />
<glyph unicode="&#x201e;" />
<glyph unicode="&#x2022;" horiz-adv-x="430" d="M330 339q0 -47 -33.5 -81t-81.5 -34q-47 0 -81 34t-34 81q0 48 34 81.5t81 33.5q48 0 81.5 -33.5t33.5 -81.5z" />
<glyph unicode="&#x2039;" />
<glyph unicode="&#x2044;" horiz-adv-x="220" d="M-99 -127l341 939l78 11l-340 -937z" />
<glyph unicode="&#x20ac;" horiz-adv-x="697" d="M467 56q38 0 96.5 16t101.5 35l-10 -60q-40 -27 -105 -47t-120 -20q-107 0 -183 68t-100 181h-114l6 68h99q0 4 -0.5 13t-0.5 14q0 24 3 47h-107l6 67h112q30 121 119 190.5t204 69.5q103 0 181 -38l-21 -131l-59 25l-8 57q-43 19 -98 19q-83 0 -144.5 -49t-81.5 -143 h193l5 -67h-207q0 -3 -0.5 -11t-0.5 -11q0 -28 3 -52h200l5 -68h-193q23 -86 80 -129.5t139 -43.5z" />
<glyph unicode="&#x2122;" horiz-adv-x="412" d="M166 678l-2 -35l-15 3q-2 12 -3 16h-38v-135l20 -3l6 -16h-74l6 16l20 3v135h-38l-2 -16l-16 -3l-2 35h138zM380 524l6 -16h-74l6 16l20 3v135l-44 -156h-24l-44 156v-135l20 -3l6 -16h-74l6 16l20 3v131l-20 3l-6 16h65l39 -145l39 145h65l-6 -16l-20 -3v-131z" />
<glyph unicode="&#x2212;" horiz-adv-x="472" d="M38 335h397l5 -67h-408z" />
<glyph unicode="&#x25fc;" horiz-adv-x="460" d="M0 460h460v-460h-460v460z" />
</font>
</defs>
</svg>
